<?xml version="1.0" encoding="UTF-8" standalone="no"?><svg xmlns="http://www.w3.org/2000/svg" xmlns:xlink="http://www.w3.org/1999/xlink" contentScriptType="application/ecmascript" contentStyleType="text/css" height="455px" preserveAspectRatio="none" style="width:1948px;height:455px;" version="1.1" viewBox="0 0 1948 455" width="1948px" zoomAndPan="magnify"><defs><filter height="300%" id="fwsuwuuapra1j" width="300%" x="-1" y="-1"><feGaussianBlur result="blurOut" stdDeviation="2.0"/><feColorMatrix in="blurOut" result="blurOut2" type="matrix" values="0 0 0 0 0 0 0 0 0 0 0 0 0 0 0 0 0 0 .4 0"/><feOffset dx="4.0" dy="4.0" in="blurOut2" result="blurOut3"/><feBlend in="SourceGraphic" in2="blurOut3" mode="normal"/></filter></defs><g><!--cluster laplacian.metamodel--><polygon fill="#FFFFFF" filter="url(#fwsuwuuapra1j)" points="1762,260.5,1916,260.5,1923,282.9883,1926,282.9883,1926,343.5,1762,343.5,1762,260.5" style="stroke: #000000; stroke-width: 1.5;"/><line style="stroke: #000000; stroke-width: 1.5;" x1="1762" x2="1923" y1="282.9883" y2="282.9883"/><text fill="#000000" font-family="sans-serif" font-size="14" font-weight="bold" lengthAdjust="spacingAndGlyphs" textLength="148" x="1766" y="276.0352">laplacian.metamodel</text><!--cluster laplacian_arch.datasource--><polygon fill="#FFFFFF" filter="url(#fwsuwuuapra1j)" points="392.5,249.5,580.5,249.5,587.5,271.9883,590.5,271.9883,590.5,332.5,392.5,332.5,392.5,249.5" style="stroke: #000000; stroke-width: 1.5;"/><line style="stroke: #000000; stroke-width: 1.5;" x1="392.5" x2="587.5" y1="271.9883" y2="271.9883"/><text fill="#000000" font-family="sans-serif" font-size="14" font-weight="bold" lengthAdjust="spacingAndGlyphs" textLength="182" x="396.5" y="265.0352">laplacian_arch.datasource</text><!--class Entity--><rect fill="#FEFECE" filter="url(#fwsuwuuapra1j)" height="48" id="Entity" style="stroke: #A80036; stroke-width: 1.5;" width="63" x="1812" y="287.5"/><ellipse cx="1827" cy="303.5" fill="#ADD1B2" rx="11" ry="11" style="stroke: #A80036; stroke-width: 1.0;"/><path d="M1829.4731,309.6431 Q1828.8921,309.9419 1828.2529,310.0913 Q1827.6138,310.2407 1826.9082,310.2407 Q1824.4014,310.2407 1823.0815,308.5889 Q1821.7617,306.937 1821.7617,303.8159 Q1821.7617,300.6865 1823.0815,299.0347 Q1824.4014,297.3828 1826.9082,297.3828 Q1827.6138,297.3828 1828.2612,297.5322 Q1828.9087,297.6816 1829.4731,297.9805 L1829.4731,300.7031 Q1828.8423,300.1221 1828.2488,299.8523 Q1827.6553,299.5825 1827.0244,299.5825 Q1825.6797,299.5825 1824.9949,300.6492 Q1824.3101,301.7158 1824.3101,303.8159 Q1824.3101,305.9077 1824.9949,306.9744 Q1825.6797,308.041 1827.0244,308.041 Q1827.6553,308.041 1828.2488,307.7712 Q1828.8423,307.5015 1829.4731,306.9204 Z "/><text fill="#000000" font-family="sans-serif" font-size="12" lengthAdjust="spacingAndGlyphs" textLength="31" x="1841" y="308.0352">Entity</text><line style="stroke: #A80036; stroke-width: 1.5;" x1="1813" x2="1874" y1="319.5" y2="319.5"/><line style="stroke: #A80036; stroke-width: 1.5;" x1="1813" x2="1874" y1="327.5" y2="327.5"/><!--class Datasource--><rect fill="#FEFECE" filter="url(#fwsuwuuapra1j)" height="48" id="Datasource" style="stroke: #A80036; stroke-width: 1.5;" width="97" x="442.5" y="276.5"/><ellipse cx="457.5" cy="292.5" fill="#ADD1B2" rx="11" ry="11" style="stroke: #A80036; stroke-width: 1.0;"/><path d="M459.9731,298.6431 Q459.3921,298.9419 458.7529,299.0913 Q458.1138,299.2407 457.4082,299.2407 Q454.9014,299.2407 453.5815,297.5889 Q452.2617,295.937 452.2617,292.8159 Q452.2617,289.6865 453.5815,288.0347 Q454.9014,286.3828 457.4082,286.3828 Q458.1138,286.3828 458.7612,286.5322 Q459.4087,286.6816 459.9731,286.9805 L459.9731,289.7031 Q459.3423,289.1221 458.7488,288.8523 Q458.1553,288.5825 457.5244,288.5825 Q456.1797,288.5825 455.4949,289.6492 Q454.8101,290.7158 454.8101,292.8159 Q454.8101,294.9077 455.4949,295.9744 Q456.1797,297.041 457.5244,297.041 Q458.1553,297.041 458.7488,296.7712 Q459.3423,296.5015 459.9731,295.9204 Z "/><text fill="#000000" font-family="sans-serif" font-size="12" lengthAdjust="spacingAndGlyphs" textLength="65" x="471.5" y="297.0352">Datasource</text><line style="stroke: #A80036; stroke-width: 1.5;" x1="443.5" x2="538.5" y1="308.5" y2="308.5"/><line style="stroke: #A80036; stroke-width: 1.5;" x1="443.5" x2="538.5" y1="316.5" y2="316.5"/><!--class RestDataItem--><rect fill="#FEFECE" filter="url(#fwsuwuuapra1j)" height="203.4609" id="RestDataItem" style="stroke: #A80036; stroke-width: 1.5;" width="173" x="1452" y="241"/><ellipse cx="1495.8" cy="257" fill="#ADD1B2" rx="11" ry="11" style="stroke: #A80036; stroke-width: 1.0;"/><path d="M1498.2731,263.1431 Q1497.6921,263.4419 1497.0529,263.5913 Q1496.4138,263.7407 1495.7082,263.7407 Q1493.2014,263.7407 1491.8815,262.0889 Q1490.5617,260.437 1490.5617,257.3159 Q1490.5617,254.1865 1491.8815,252.5347 Q1493.2014,250.8828 1495.7082,250.8828 Q1496.4138,250.8828 1497.0612,251.0322 Q1497.7087,251.1816 1498.2731,251.4805 L1498.2731,254.2031 Q1497.6423,253.6221 1497.0488,253.3523 Q1496.4553,253.0825 1495.8244,253.0825 Q1494.4797,253.0825 1493.7949,254.1492 Q1493.1101,255.2158 1493.1101,257.3159 Q1493.1101,259.4077 1493.7949,260.4744 Q1494.4797,261.541 1495.8244,261.541 Q1496.4553,261.541 1497.0488,261.2712 Q1497.6423,261.0015 1498.2731,260.4204 Z "/><text fill="#000000" font-family="sans-serif" font-size="12" lengthAdjust="spacingAndGlyphs" textLength="77" x="1516.2" y="261.5352">RestDataItem</text><line style="stroke: #A80036; stroke-width: 1.5;" x1="1453" x2="1624" y1="273" y2="273"/><path d="M1462.6667,279.8717 L1461.75,282.6217 L1459,282.6217 L1461.2917,284.4551 L1460.375,287.2051 L1462.6667,285.3717 L1464.9583,287.2051 L1464.0417,284.4551 L1466.3333,282.6217 L1463.5833,282.6217 L1462.6667,279.8717 " fill="#008000" style="stroke: ; stroke-width: 0.0; stroke-dasharray: ;"/><text fill="#000000" font-family="sans-serif" font-size="11" lengthAdjust="spacingAndGlyphs" textLength="32" x="1467.3333" y="287.6348">name:</text><text fill="#808080" font-family="sans-serif" font-size="11" lengthAdjust="spacingAndGlyphs" textLength="32" x="1502.3333" y="287.6348">String</text><text fill="#000000" font-family="sans-serif" font-size="11" lengthAdjust="spacingAndGlyphs" textLength="51" x="1458" y="300.5898">identifier:</text><text fill="#808080" font-family="sans-serif" font-size="11" lengthAdjust="spacingAndGlyphs" textLength="32" x="1512" y="300.5898">String</text><text fill="#000000" font-family="sans-serif" font-size="11" lengthAdjust="spacingAndGlyphs" textLength="26" x="1458" y="313.5449">type:</text><text fill="#808080" font-family="sans-serif" font-size="11" lengthAdjust="spacingAndGlyphs" textLength="37" x="1487" y="313.5449">String?</text><text fill="#000000" font-family="sans-serif" font-size="11" lengthAdjust="spacingAndGlyphs" textLength="68" x="1458" y="326.5">entity_name:</text><text fill="#808080" font-family="sans-serif" font-size="11" lengthAdjust="spacingAndGlyphs" textLength="37" x="1529" y="326.5">String?</text><text fill="#000000" font-family="sans-serif" font-size="11" lengthAdjust="spacingAndGlyphs" textLength="64" x="1458" y="339.4551">description:</text><text fill="#808080" font-family="sans-serif" font-size="11" lengthAdjust="spacingAndGlyphs" textLength="32" x="1525" y="339.4551">String</text><text fill="#000000" font-family="sans-serif" font-size="11" lengthAdjust="spacingAndGlyphs" textLength="26" x="1458" y="352.4102">root:</text><text fill="#808080" font-family="sans-serif" font-size="11" lengthAdjust="spacingAndGlyphs" textLength="42" x="1487" y="352.4102">Boolean</text><text fill="#000000" font-family="sans-serif" font-size="11" lengthAdjust="spacingAndGlyphs" textLength="46" x="1458" y="365.3652">multiple:</text><text fill="#808080" font-family="sans-serif" font-size="11" lengthAdjust="spacingAndGlyphs" textLength="42" x="1507" y="365.3652">Boolean</text><text fill="#000000" font-family="sans-serif" font-size="11" lengthAdjust="spacingAndGlyphs" textLength="49" x="1458" y="378.3203">required:</text><text fill="#808080" font-family="sans-serif" font-size="11" lengthAdjust="spacingAndGlyphs" textLength="42" x="1510" y="378.3203">Boolean</text><text fill="#000000" font-family="sans-serif" font-size="11" lengthAdjust="spacingAndGlyphs" textLength="74" x="1458" y="391.2754">default_value:</text><text fill="#808080" font-family="sans-serif" font-size="11" lengthAdjust="spacingAndGlyphs" textLength="37" x="1535" y="391.2754">String?</text><text fill="#000000" font-family="sans-serif" font-size="11" lengthAdjust="spacingAndGlyphs" textLength="82" x="1458" y="404.2305">example_value:</text><text fill="#808080" font-family="sans-serif" font-size="11" lengthAdjust="spacingAndGlyphs" textLength="32" x="1543" y="404.2305">String</text><line style="stroke: #A80036; stroke-width: 1.5;" x1="1453" x2="1624" y1="410.5508" y2="410.5508"/><text fill="#000000" font-family="sans-serif" font-size="11" lengthAdjust="spacingAndGlyphs" textLength="60" x="1458" y="425.1855">dataType():</text><text fill="#808080" font-family="sans-serif" font-size="11" lengthAdjust="spacingAndGlyphs" textLength="32" x="1521" y="425.1855">String</text><text fill="#000000" font-family="sans-serif" font-size="11" lengthAdjust="spacingAndGlyphs" textLength="91" x="1458" y="438.1406">relatingEntities():</text><text fill="#808080" font-family="sans-serif" font-size="11" lengthAdjust="spacingAndGlyphs" textLength="67" x="1552" y="438.1406">List&lt;Entity&gt;</text><!--class GraphqlQuery--><rect fill="#FEFECE" filter="url(#fwsuwuuapra1j)" height="151.6406" id="GraphqlQuery" style="stroke: #A80036; stroke-width: 1.5;" width="162" x="1457.5" y="8.5"/><ellipse cx="1494.55" cy="24.5" fill="#ADD1B2" rx="11" ry="11" style="stroke: #A80036; stroke-width: 1.0;"/><path d="M1497.0231,30.6431 Q1496.4421,30.9419 1495.8029,31.0913 Q1495.1638,31.2407 1494.4582,31.2407 Q1491.9514,31.2407 1490.6315,29.5889 Q1489.3117,27.937 1489.3117,24.8159 Q1489.3117,21.6865 1490.6315,20.0347 Q1491.9514,18.3828 1494.4582,18.3828 Q1495.1638,18.3828 1495.8112,18.5322 Q1496.4587,18.6816 1497.0231,18.9805 L1497.0231,21.7031 Q1496.3923,21.1221 1495.7988,20.8523 Q1495.2053,20.5825 1494.5744,20.5825 Q1493.2297,20.5825 1492.5449,21.6492 Q1491.8601,22.7158 1491.8601,24.8159 Q1491.8601,26.9077 1492.5449,27.9744 Q1493.2297,29.041 1494.5744,29.041 Q1495.2053,29.041 1495.7988,28.7712 Q1496.3923,28.5015 1497.0231,27.9204 Z "/><text fill="#000000" font-family="sans-serif" font-size="12" lengthAdjust="spacingAndGlyphs" textLength="81" x="1513.45" y="29.0352">GraphqlQuery</text><line style="stroke: #A80036; stroke-width: 1.5;" x1="1458.5" x2="1618.5" y1="40.5" y2="40.5"/><path d="M1468.1667,47.3717 L1467.25,50.1217 L1464.5,50.1217 L1466.7917,51.9551 L1465.875,54.7051 L1468.1667,52.8717 L1470.4583,54.7051 L1469.5417,51.9551 L1471.8333,50.1217 L1469.0833,50.1217 L1468.1667,47.3717 " fill="#008000" style="stroke: ; stroke-width: 0.0; stroke-dasharray: ;"/><text fill="#000000" font-family="sans-serif" font-size="11" lengthAdjust="spacingAndGlyphs" textLength="32" x="1472.8333" y="55.1348">name:</text><text fill="#808080" font-family="sans-serif" font-size="11" lengthAdjust="spacingAndGlyphs" textLength="32" x="1507.8333" y="55.1348">String</text><text fill="#000000" font-family="sans-serif" font-size="11" lengthAdjust="spacingAndGlyphs" textLength="51" x="1463.5" y="68.0898">identifier:</text><text fill="#808080" font-family="sans-serif" font-size="11" lengthAdjust="spacingAndGlyphs" textLength="32" x="1517.5" y="68.0898">String</text><text fill="#000000" font-family="sans-serif" font-size="11" lengthAdjust="spacingAndGlyphs" textLength="64" x="1463.5" y="81.0449">description:</text><text fill="#808080" font-family="sans-serif" font-size="11" lengthAdjust="spacingAndGlyphs" textLength="32" x="1530.5" y="81.0449">String</text><path d="M1468.1667,86.237 L1467.25,88.987 L1464.5,88.987 L1466.7917,90.8203 L1465.875,93.5703 L1468.1667,91.737 L1470.4583,93.5703 L1469.5417,90.8203 L1471.8333,88.987 L1469.0833,88.987 L1468.1667,86.237 " fill="#008000" style="stroke: ; stroke-width: 0.0; stroke-dasharray: ;"/><text fill="#000000" font-family="sans-serif" font-size="11" lengthAdjust="spacingAndGlyphs" textLength="34" x="1472.8333" y="94">query:</text><text fill="#808080" font-family="sans-serif" font-size="11" lengthAdjust="spacingAndGlyphs" textLength="32" x="1509.8333" y="94">String</text><text fill="#000000" font-family="sans-serif" font-size="11" lengthAdjust="spacingAndGlyphs" textLength="46" x="1463.5" y="106.9551">multiple:</text><text fill="#808080" font-family="sans-serif" font-size="11" lengthAdjust="spacingAndGlyphs" textLength="42" x="1512.5" y="106.9551">Boolean</text><text fill="#000000" font-family="sans-serif" font-size="11" lengthAdjust="spacingAndGlyphs" textLength="110" x="1463.5" y="119.9102">record_entity_name:</text><text fill="#808080" font-family="sans-serif" font-size="11" lengthAdjust="spacingAndGlyphs" textLength="37" x="1576.5" y="119.9102">String?</text><text fill="#000000" font-family="sans-serif" font-size="11" lengthAdjust="spacingAndGlyphs" textLength="68" x="1463.5" y="132.8652">record_type:</text><text fill="#808080" font-family="sans-serif" font-size="11" lengthAdjust="spacingAndGlyphs" textLength="32" x="1534.5" y="132.8652">String</text><text fill="#000000" font-family="sans-serif" font-size="11" lengthAdjust="spacingAndGlyphs" textLength="66" x="1463.5" y="145.8203">return_type:</text><text fill="#808080" font-family="sans-serif" font-size="11" lengthAdjust="spacingAndGlyphs" textLength="32" x="1532.5" y="145.8203">String</text><line style="stroke: #A80036; stroke-width: 1.5;" x1="1458.5" x2="1618.5" y1="152.1406" y2="152.1406"/><!--class RestOperation--><rect fill="#FEFECE" filter="url(#fwsuwuuapra1j)" height="177.5508" id="RestOperation" style="stroke: #A80036; stroke-width: 1.5;" width="221" x="1056" y="196.5"/><ellipse cx="1121.25" cy="212.5" fill="#ADD1B2" rx="11" ry="11" style="stroke: #A80036; stroke-width: 1.0;"/><path d="M1123.7231,218.6431 Q1123.1421,218.9419 1122.5029,219.0913 Q1121.8638,219.2407 1121.1582,219.2407 Q1118.6514,219.2407 1117.3315,217.5889 Q1116.0117,215.937 1116.0117,212.8159 Q1116.0117,209.6865 1117.3315,208.0347 Q1118.6514,206.3828 1121.1582,206.3828 Q1121.8638,206.3828 1122.5112,206.5322 Q1123.1587,206.6816 1123.7231,206.9805 L1123.7231,209.7031 Q1123.0923,209.1221 1122.4988,208.8523 Q1121.9053,208.5825 1121.2744,208.5825 Q1119.9297,208.5825 1119.2449,209.6492 Q1118.5601,210.7158 1118.5601,212.8159 Q1118.5601,214.9077 1119.2449,215.9744 Q1119.9297,217.041 1121.2744,217.041 Q1121.9053,217.041 1122.4988,216.7712 Q1123.0923,216.5015 1123.7231,215.9204 Z "/><text fill="#000000" font-family="sans-serif" font-size="12" lengthAdjust="spacingAndGlyphs" textLength="82" x="1141.75" y="217.0352">RestOperation</text><line style="stroke: #A80036; stroke-width: 1.5;" x1="1057" x2="1276" y1="228.5" y2="228.5"/><path d="M1066.6667,235.3717 L1065.75,238.1217 L1063,238.1217 L1065.2917,239.9551 L1064.375,242.7051 L1066.6667,240.8717 L1068.9583,242.7051 L1068.0417,239.9551 L1070.3333,238.1217 L1067.5833,238.1217 L1066.6667,235.3717 " fill="#008000" style="stroke: ; stroke-width: 0.0; stroke-dasharray: ;"/><text fill="#000000" font-family="sans-serif" font-size="11" lengthAdjust="spacingAndGlyphs" textLength="44" x="1071.3333" y="243.1348">method:</text><text fill="#808080" font-family="sans-serif" font-size="11" lengthAdjust="spacingAndGlyphs" textLength="32" x="1118.3333" y="243.1348">String</text><text fill="#000000" font-family="sans-serif" font-size="11" lengthAdjust="spacingAndGlyphs" textLength="27" x="1062" y="256.0898">path:</text><text fill="#808080" font-family="sans-serif" font-size="11" lengthAdjust="spacingAndGlyphs" textLength="32" x="1092" y="256.0898">String</text><text fill="#000000" font-family="sans-serif" font-size="11" lengthAdjust="spacingAndGlyphs" textLength="32" x="1062" y="269.0449">name:</text><text fill="#808080" font-family="sans-serif" font-size="11" lengthAdjust="spacingAndGlyphs" textLength="32" x="1097" y="269.0449">String</text><text fill="#000000" font-family="sans-serif" font-size="11" lengthAdjust="spacingAndGlyphs" textLength="51" x="1062" y="282">identifier:</text><text fill="#808080" font-family="sans-serif" font-size="11" lengthAdjust="spacingAndGlyphs" textLength="32" x="1116" y="282">String</text><text fill="#000000" font-family="sans-serif" font-size="11" lengthAdjust="spacingAndGlyphs" textLength="63" x="1062" y="294.9551">namespace:</text><text fill="#808080" font-family="sans-serif" font-size="11" lengthAdjust="spacingAndGlyphs" textLength="32" x="1128" y="294.9551">String</text><text fill="#000000" font-family="sans-serif" font-size="11" lengthAdjust="spacingAndGlyphs" textLength="64" x="1062" y="307.9102">description:</text><text fill="#808080" font-family="sans-serif" font-size="11" lengthAdjust="spacingAndGlyphs" textLength="32" x="1129" y="307.9102">String</text><line style="stroke: #A80036; stroke-width: 1.5;" x1="1057" x2="1276" y1="314.2305" y2="314.2305"/><text fill="#000000" font-family="sans-serif" font-size="11" lengthAdjust="spacingAndGlyphs" textLength="113" x="1062" y="328.8652">responseBodyType():</text><text fill="#808080" font-family="sans-serif" font-size="11" lengthAdjust="spacingAndGlyphs" textLength="32" x="1178" y="328.8652">String</text><text fill="#000000" font-family="sans-serif" font-size="11" lengthAdjust="spacingAndGlyphs" textLength="91" x="1062" y="341.8203">relatingEntities():</text><text fill="#808080" font-family="sans-serif" font-size="11" lengthAdjust="spacingAndGlyphs" textLength="67" x="1156" y="341.8203">List&lt;Entity&gt;</text><text fill="#000000" font-family="sans-serif" font-size="11" lengthAdjust="spacingAndGlyphs" textLength="139" x="1062" y="354.7754">relatingTopLevelEntities():</text><text fill="#808080" font-family="sans-serif" font-size="11" lengthAdjust="spacingAndGlyphs" textLength="67" x="1204" y="354.7754">List&lt;Entity&gt;</text><text fill="#000000" font-family="sans-serif" font-size="11" lengthAdjust="spacingAndGlyphs" textLength="112" x="1062" y="367.7305">responseBodyRoot():</text><text fill="#808080" font-family="sans-serif" font-size="11" lengthAdjust="spacingAndGlyphs" textLength="75" x="1177" y="367.7305">RestDataItem?</text><!--class Service--><rect fill="#FEFECE" filter="url(#fwsuwuuapra1j)" height="242.3262" id="Service" style="stroke: #A80036; stroke-width: 1.5;" width="221" x="6" y="89.5"/><ellipse cx="92.25" cy="105.5" fill="#ADD1B2" rx="11" ry="11" style="stroke: #A80036; stroke-width: 1.0;"/><path d="M94.7231,111.6431 Q94.1421,111.9419 93.5029,112.0913 Q92.8638,112.2407 92.1582,112.2407 Q89.6514,112.2407 88.3315,110.5889 Q87.0117,108.937 87.0117,105.8159 Q87.0117,102.6865 88.3315,101.0347 Q89.6514,99.3828 92.1582,99.3828 Q92.8638,99.3828 93.5112,99.5322 Q94.1587,99.6816 94.7231,99.9805 L94.7231,102.7031 Q94.0923,102.1221 93.4988,101.8523 Q92.9053,101.5825 92.2744,101.5825 Q90.9297,101.5825 90.2449,102.6492 Q89.5601,103.7158 89.5601,105.8159 Q89.5601,107.9077 90.2449,108.9744 Q90.9297,110.041 92.2744,110.041 Q92.9053,110.041 93.4988,109.7712 Q94.0923,109.5015 94.7231,108.9204 Z "/><text fill="#000000" font-family="sans-serif" font-size="12" lengthAdjust="spacingAndGlyphs" textLength="40" x="112.75" y="110.0352">Service</text><line style="stroke: #A80036; stroke-width: 1.5;" x1="7" x2="226" y1="121.5" y2="121.5"/><path d="M16.6667,128.3717 L15.75,131.1217 L13,131.1217 L15.2917,132.9551 L14.375,135.7051 L16.6667,133.8717 L18.9583,135.7051 L18.0417,132.9551 L20.3333,131.1217 L17.5833,131.1217 L16.6667,128.3717 " fill="#008000" style="stroke: ; stroke-width: 0.0; stroke-dasharray: ;"/><text fill="#000000" font-family="sans-serif" font-size="11" lengthAdjust="spacingAndGlyphs" textLength="32" x="21.3333" y="136.1348">name:</text><text fill="#808080" font-family="sans-serif" font-size="11" lengthAdjust="spacingAndGlyphs" textLength="32" x="56.3333" y="136.1348">String</text><text fill="#000000" font-family="sans-serif" font-size="11" lengthAdjust="spacingAndGlyphs" textLength="51" x="12" y="149.0898">identifier:</text><text fill="#808080" font-family="sans-serif" font-size="11" lengthAdjust="spacingAndGlyphs" textLength="32" x="66" y="149.0898">String</text><path d="M16.6667,154.2819 L15.75,157.0319 L13,157.0319 L15.2917,158.8652 L14.375,161.6152 L16.6667,159.7819 L18.9583,161.6152 L18.0417,158.8652 L20.3333,157.0319 L17.5833,157.0319 L16.6667,154.2819 " fill="#008000" style="stroke: ; stroke-width: 0.0; stroke-dasharray: ;"/><text fill="#000000" font-family="sans-serif" font-size="11" lengthAdjust="spacingAndGlyphs" textLength="43" x="21.3333" y="162.0449">version:</text><text fill="#808080" font-family="sans-serif" font-size="11" lengthAdjust="spacingAndGlyphs" textLength="32" x="67.3333" y="162.0449">String</text><text fill="#000000" font-family="sans-serif" font-size="11" lengthAdjust="spacingAndGlyphs" textLength="65" x="12" y="175">api_version:</text><text fill="#808080" font-family="sans-serif" font-size="11" lengthAdjust="spacingAndGlyphs" textLength="32" x="80" y="175">String</text><text fill="#000000" font-family="sans-serif" font-size="11" lengthAdjust="spacingAndGlyphs" textLength="51" x="12" y="187.9551">endpoint:</text><text fill="#808080" font-family="sans-serif" font-size="11" lengthAdjust="spacingAndGlyphs" textLength="32" x="66" y="187.9551">String</text><text fill="#000000" font-family="sans-serif" font-size="11" lengthAdjust="spacingAndGlyphs" textLength="27" x="12" y="200.9102">host:</text><text fill="#808080" font-family="sans-serif" font-size="11" lengthAdjust="spacingAndGlyphs" textLength="32" x="42" y="200.9102">String</text><text fill="#000000" font-family="sans-serif" font-size="11" lengthAdjust="spacingAndGlyphs" textLength="26" x="12" y="213.8652">port:</text><text fill="#808080" font-family="sans-serif" font-size="11" lengthAdjust="spacingAndGlyphs" textLength="14" x="41" y="213.8652">Int</text><text fill="#000000" font-family="sans-serif" font-size="11" lengthAdjust="spacingAndGlyphs" textLength="49" x="12" y="226.8203">protocol:</text><text fill="#808080" font-family="sans-serif" font-size="11" lengthAdjust="spacingAndGlyphs" textLength="32" x="64" y="226.8203">String</text><text fill="#000000" font-family="sans-serif" font-size="11" lengthAdjust="spacingAndGlyphs" textLength="27" x="12" y="239.7754">path:</text><text fill="#808080" font-family="sans-serif" font-size="11" lengthAdjust="spacingAndGlyphs" textLength="32" x="42" y="239.7754">String</text><text fill="#000000" font-family="sans-serif" font-size="11" lengthAdjust="spacingAndGlyphs" textLength="63" x="12" y="252.7305">namespace:</text><text fill="#808080" font-family="sans-serif" font-size="11" lengthAdjust="spacingAndGlyphs" textLength="32" x="78" y="252.7305">String</text><text fill="#000000" font-family="sans-serif" font-size="11" lengthAdjust="spacingAndGlyphs" textLength="64" x="12" y="265.6855">description:</text><text fill="#808080" font-family="sans-serif" font-size="11" lengthAdjust="spacingAndGlyphs" textLength="32" x="79" y="265.6855">String</text><path d="M16.6667,270.8776 L15.75,273.6276 L13,273.6276 L15.2917,275.4609 L14.375,278.2109 L16.6667,276.3776 L18.9583,278.2109 L18.0417,275.4609 L20.3333,273.6276 L17.5833,273.6276 L16.6667,270.8776 " fill="#008000" style="stroke: ; stroke-width: 0.0; stroke-dasharray: ;"/><text fill="#000000" font-family="sans-serif" font-size="11" lengthAdjust="spacingAndGlyphs" textLength="98" x="21.3333" y="278.6406">datasource_name:</text><text fill="#808080" font-family="sans-serif" font-size="11" lengthAdjust="spacingAndGlyphs" textLength="32" x="122.3333" y="278.6406">String</text><line style="stroke: #A80036; stroke-width: 1.5;" x1="7" x2="226" y1="284.9609" y2="284.9609"/><text fill="#000000" font-family="sans-serif" font-size="11" lengthAdjust="spacingAndGlyphs" textLength="65" x="12" y="299.5957">resources():</text><text fill="#808080" font-family="sans-serif" font-size="11" lengthAdjust="spacingAndGlyphs" textLength="110" x="80" y="299.5957">List&lt;RestResource&gt;</text><text fill="#000000" font-family="sans-serif" font-size="11" lengthAdjust="spacingAndGlyphs" textLength="91" x="12" y="312.5508">relatingEntities():</text><text fill="#808080" font-family="sans-serif" font-size="11" lengthAdjust="spacingAndGlyphs" textLength="67" x="106" y="312.5508">List&lt;Entity&gt;</text><text fill="#000000" font-family="sans-serif" font-size="11" lengthAdjust="spacingAndGlyphs" textLength="139" x="12" y="325.5059">relatingTopLevelEntities():</text><text fill="#808080" font-family="sans-serif" font-size="11" lengthAdjust="spacingAndGlyphs" textLength="67" x="154" y="325.5059">List&lt;Entity&gt;</text><!--class ResourceEntry--><rect fill="#FEFECE" filter="url(#fwsuwuuapra1j)" height="60.9551" id="ResourceEntry" style="stroke: #A80036; stroke-width: 1.5;" width="142.3333" x="420" y="180"/><ellipse cx="447.75" cy="196" fill="#ADD1B2" rx="11" ry="11" style="stroke: #A80036; stroke-width: 1.0;"/><path d="M450.2231,202.1431 Q449.6421,202.4419 449.0029,202.5913 Q448.3638,202.7407 447.6582,202.7407 Q445.1514,202.7407 443.8315,201.0889 Q442.5117,199.437 442.5117,196.3159 Q442.5117,193.1865 443.8315,191.5347 Q445.1514,189.8828 447.6582,189.8828 Q448.3638,189.8828 449.0112,190.0322 Q449.6587,190.1816 450.2231,190.4805 L450.2231,193.2031 Q449.5923,192.6221 448.9988,192.3523 Q448.4053,192.0825 447.7744,192.0825 Q446.4297,192.0825 445.7449,193.1492 Q445.0601,194.2158 445.0601,196.3159 Q445.0601,198.4077 445.7449,199.4744 Q446.4297,200.541 447.7744,200.541 Q448.4053,200.541 448.9988,200.2712 Q449.5923,200.0015 450.2231,199.4204 Z "/><text fill="#000000" font-family="sans-serif" font-size="12" lengthAdjust="spacingAndGlyphs" textLength="82" x="464.5833" y="200.5352">ResourceEntry</text><line style="stroke: #A80036; stroke-width: 1.5;" x1="421" x2="561.3333" y1="212" y2="212"/><path d="M430.6667,218.8717 L429.75,221.6217 L427,221.6217 L429.2917,223.4551 L428.375,226.2051 L430.6667,224.3717 L432.9583,226.2051 L432.0417,223.4551 L434.3333,221.6217 L431.5833,221.6217 L430.6667,218.8717 " fill="#008000" style="stroke: ; stroke-width: 0.0; stroke-dasharray: ;"/><text fill="#000000" font-family="sans-serif" font-size="11" lengthAdjust="spacingAndGlyphs" textLength="86" x="435.3333" y="226.6348">resource_name:</text><text fill="#808080" font-family="sans-serif" font-size="11" lengthAdjust="spacingAndGlyphs" textLength="32" x="524.3333" y="226.6348">String</text><line style="stroke: #A80036; stroke-width: 1.5;" x1="421" x2="561.3333" y1="232.9551" y2="232.9551"/><!--class RestResource--><rect fill="#FEFECE" filter="url(#fwsuwuuapra1j)" height="138.6855" id="RestResource" style="stroke: #A80036; stroke-width: 1.5;" width="221" x="706" y="182"/><ellipse cx="773.25" cy="198" fill="#ADD1B2" rx="11" ry="11" style="stroke: #A80036; stroke-width: 1.0;"/><path d="M775.7231,204.1431 Q775.1421,204.4419 774.5029,204.5913 Q773.8638,204.7407 773.1582,204.7407 Q770.6514,204.7407 769.3315,203.0889 Q768.0117,201.437 768.0117,198.3159 Q768.0117,195.1865 769.3315,193.5347 Q770.6514,191.8828 773.1582,191.8828 Q773.8638,191.8828 774.5112,192.0322 Q775.1587,192.1816 775.7231,192.4805 L775.7231,195.2031 Q775.0923,194.6221 774.4988,194.3523 Q773.9053,194.0825 773.2744,194.0825 Q771.9297,194.0825 771.2449,195.1492 Q770.5601,196.2158 770.5601,198.3159 Q770.5601,200.4077 771.2449,201.4744 Q771.9297,202.541 773.2744,202.541 Q773.9053,202.541 774.4988,202.2712 Q775.0923,202.0015 775.7231,201.4204 Z "/><text fill="#000000" font-family="sans-serif" font-size="12" lengthAdjust="spacingAndGlyphs" textLength="78" x="793.75" y="202.5352">RestResource</text><line style="stroke: #A80036; stroke-width: 1.5;" x1="707" x2="926" y1="214" y2="214"/><path d="M716.6667,220.8717 L715.75,223.6217 L713,223.6217 L715.2917,225.4551 L714.375,228.2051 L716.6667,226.3717 L718.9583,228.2051 L718.0417,225.4551 L720.3333,223.6217 L717.5833,223.6217 L716.6667,220.8717 " fill="#008000" style="stroke: ; stroke-width: 0.0; stroke-dasharray: ;"/><text fill="#000000" font-family="sans-serif" font-size="11" lengthAdjust="spacingAndGlyphs" textLength="32" x="721.3333" y="228.6348">name:</text><text fill="#808080" font-family="sans-serif" font-size="11" lengthAdjust="spacingAndGlyphs" textLength="32" x="756.3333" y="228.6348">String</text><text fill="#000000" font-family="sans-serif" font-size="11" lengthAdjust="spacingAndGlyphs" textLength="51" x="712" y="241.5898">identifier:</text><text fill="#808080" font-family="sans-serif" font-size="11" lengthAdjust="spacingAndGlyphs" textLength="32" x="766" y="241.5898">String</text><text fill="#000000" font-family="sans-serif" font-size="11" lengthAdjust="spacingAndGlyphs" textLength="63" x="712" y="254.5449">namespace:</text><text fill="#808080" font-family="sans-serif" font-size="11" lengthAdjust="spacingAndGlyphs" textLength="32" x="778" y="254.5449">String</text><text fill="#000000" font-family="sans-serif" font-size="11" lengthAdjust="spacingAndGlyphs" textLength="27" x="712" y="267.5">path:</text><text fill="#808080" font-family="sans-serif" font-size="11" lengthAdjust="spacingAndGlyphs" textLength="32" x="742" y="267.5">String</text><text fill="#000000" font-family="sans-serif" font-size="11" lengthAdjust="spacingAndGlyphs" textLength="64" x="712" y="280.4551">description:</text><text fill="#808080" font-family="sans-serif" font-size="11" lengthAdjust="spacingAndGlyphs" textLength="32" x="779" y="280.4551">String</text><line style="stroke: #A80036; stroke-width: 1.5;" x1="707" x2="926" y1="286.7754" y2="286.7754"/><text fill="#000000" font-family="sans-serif" font-size="11" lengthAdjust="spacingAndGlyphs" textLength="91" x="712" y="301.4102">relatingEntities():</text><text fill="#808080" font-family="sans-serif" font-size="11" lengthAdjust="spacingAndGlyphs" textLength="67" x="806" y="301.4102">List&lt;Entity&gt;</text><text fill="#000000" font-family="sans-serif" font-size="11" lengthAdjust="spacingAndGlyphs" textLength="139" x="712" y="314.3652">relatingTopLevelEntities():</text><text fill="#808080" font-family="sans-serif" font-size="11" lengthAdjust="spacingAndGlyphs" textLength="67" x="854" y="314.3652">List&lt;Entity&gt;</text><!--link RestDataItem to RestDataItem--><path d="M1513.2358,227.9311 C1517.906,214.642 1526.3274,206 1538.5,206 C1554.2383,206 1563.7058,220.4465 1566.9027,240.7054 " fill="none" id="RestDataItem-RestDataItem" style="stroke: #A80036; stroke-width: 1.0;"/><polygon fill="#A80036" points="1510.0973,240.7054,1515.4134,235.8331,1512.9605,229.052,1507.6445,233.9243,1510.0973,240.7054" style="stroke: #A80036; stroke-width: 1.0;"/><text fill="#000000" font-family="sans-serif" font-size="13" lengthAdjust="spacingAndGlyphs" textLength="51" x="1513" y="197.5684">children</text><text fill="#000000" font-family="sans-serif" font-size="13" lengthAdjust="spacingAndGlyphs" textLength="6" x="1562.7682" y="230.2419">*</text><!--link RestDataItem to Entity--><path d="M1625.0849,333.6996 C1687.43,327.3629 1767.9752,319.1763 1811.7496,314.7271 " fill="none" id="RestDataItem-Entity" style="stroke: #A80036; stroke-width: 1.0;"/><text fill="#000000" font-family="sans-serif" font-size="13" lengthAdjust="spacingAndGlyphs" textLength="36" x="1679.5" y="318.0684">entity</text><text fill="#000000" font-family="sans-serif" font-size="13" lengthAdjust="spacingAndGlyphs" textLength="24" x="1779.9566" y="329.2339">0..1</text><!--link GraphqlQuery to Entity--><path d="M1619.8337,145.0336 C1682.8329,191.9216 1766.7197,254.3553 1811.7368,287.8598 " fill="none" id="GraphqlQuery-Entity" style="stroke: #A80036; stroke-width: 1.0;"/><text fill="#000000" font-family="sans-serif" font-size="13" lengthAdjust="spacingAndGlyphs" textLength="83" x="1656" y="175.0684">record_entity</text><text fill="#000000" font-family="sans-serif" font-size="13" lengthAdjust="spacingAndGlyphs" textLength="24" x="1779.9415" y="297.5808">0..1</text><!--link RestOperation to RestDataItem--><path d="M1289.307,214.4347 C1332.2164,198.6888 1380.1058,191.5976 1422,210.5 C1438.1593,217.791 1452.9765,228.5539 1466.2301,240.8412 " fill="none" id="RestOperation-RestDataItem" style="stroke: #A80036; stroke-width: 1.0;"/><polygon fill="#A80036" points="1277.0513,219.2121,1284.0944,220.7598,1288.2318,214.8537,1281.1888,213.3061,1277.0513,219.2121" style="stroke: #A80036; stroke-width: 1.0;"/><text fill="#000000" font-family="sans-serif" font-size="13" lengthAdjust="spacingAndGlyphs" textLength="105" x="1312" y="196.0684">path_parameters</text><text fill="#000000" font-family="sans-serif" font-size="13" lengthAdjust="spacingAndGlyphs" textLength="6" x="1454.7025" y="230.3877">*</text><!--link RestOperation to RestDataItem--><path d="M1290.1374,259.389 C1332.6343,254.961 1380.0519,255.1649 1422,267.5 C1432.0387,270.4519 1442.0296,274.5662 1451.699,279.3625 " fill="none" id="RestOperation-RestDataItem-1" style="stroke: #A80036; stroke-width: 1.0;"/><polygon fill="#A80036" points="1277.1182,260.9037,1283.5402,264.1835,1289.0378,259.517,1282.6158,256.2371,1277.1182,260.9037" style="stroke: #A80036; stroke-width: 1.0;"/><text fill="#000000" font-family="sans-serif" font-size="13" lengthAdjust="spacingAndGlyphs" textLength="103" x="1313" y="254.0684">request_headers</text><text fill="#000000" font-family="sans-serif" font-size="13" lengthAdjust="spacingAndGlyphs" textLength="6" x="1437.9817" y="287.143">*</text><!--link RestOperation to RestDataItem--><path d="M1290.2764,304.347 C1332.1111,310.7294 1379.0856,317.9095 1422,324.5 C1431.7097,325.9912 1441.874,327.5559 1451.981,329.1143 " fill="none" id="RestOperation-RestDataItem-2" style="stroke: #A80036; stroke-width: 1.0;"/><polygon fill="#A80036" points="1277.1777,302.3491,1282.5059,307.2081,1289.0405,304.1586,1283.7123,299.2996,1277.1777,302.3491" style="stroke: #A80036; stroke-width: 1.0;"/><text fill="#000000" font-family="sans-serif" font-size="13" lengthAdjust="spacingAndGlyphs" textLength="112" x="1308.5" y="303.0684">query_parameters</text><text fill="#000000" font-family="sans-serif" font-size="13" lengthAdjust="spacingAndGlyphs" textLength="6" x="1438.0082" y="341.1518">*</text><!--link RestOperation to RestDataItem--><path d="M1289.8747,345.1031 C1295.5966,346.7848 1301.3212,348.2675 1307,349.5 C1354.1535,359.7337 1407.9673,358.8352 1451.8365,354.9924 " fill="none" id="RestOperation-RestDataItem-3" style="stroke: #A80036; stroke-width: 1.0;"/><polygon fill="#A80036" points="1277.3715,341.1234,1281.8756,346.7548,1288.8062,344.7631,1284.3021,339.1317,1277.3715,341.1234" style="stroke: #A80036; stroke-width: 1.0;"/><text fill="#000000" font-family="sans-serif" font-size="13" lengthAdjust="spacingAndGlyphs" textLength="85" x="1322" y="346.0684">request_body</text><text fill="#000000" font-family="sans-serif" font-size="13" lengthAdjust="spacingAndGlyphs" textLength="6" x="1438.131" y="369.2724">*</text><!--link RestOperation to RestDataItem--><path d="M1289.2305,375.9391 C1295.1002,378.4305 1301.0352,380.641 1307,382.5 C1353.8243,397.0935 1407.7383,389.1514 1451.75,376.6248 " fill="none" id="RestOperation-RestDataItem-4" style="stroke: #A80036; stroke-width: 1.0;"/><polygon fill="#A80036" points="1277.2852,370.453,1281.0682,376.5921,1288.1901,375.4614,1284.4071,369.3222,1277.2852,370.453" style="stroke: #A80036; stroke-width: 1.0;"/><text fill="#000000" font-family="sans-serif" font-size="13" lengthAdjust="spacingAndGlyphs" textLength="113" x="1308" y="379.0684">response_headers</text><text fill="#000000" font-family="sans-serif" font-size="13" lengthAdjust="spacingAndGlyphs" textLength="6" x="1438.0371" y="392.7638">*</text><!--link RestOperation to RestDataItem--><path d="M1254.0156,383.1867 C1270.2812,395.9667 1288.1423,407.1559 1307,414.5 C1354.6268,433.0481 1372.8342,428.4668 1422,414.5 C1432.0635,411.6412 1442.1093,407.6381 1451.846,402.9686 " fill="none" id="RestOperation-RestDataItem-5" style="stroke: #A80036; stroke-width: 1.0;"/><polygon fill="#A80036" points="1243.5627,374.5831,1245.6533,381.4845,1252.8279,382.2092,1250.7373,375.3077,1243.5627,374.5831" style="stroke: #A80036; stroke-width: 1.0;"/><text fill="#000000" font-family="sans-serif" font-size="13" lengthAdjust="spacingAndGlyphs" textLength="95" x="1317" y="411.0684">response_body</text><text fill="#000000" font-family="sans-serif" font-size="13" lengthAdjust="spacingAndGlyphs" textLength="6" x="1437.8612" y="421.5837">*</text><!--link Service to ResourceEntry--><path d="M240.4311,210.5 C300.0204,210.5 369.3068,210.5 419.8982,210.5 " fill="none" id="Service-ResourceEntry" style="stroke: #A80036; stroke-width: 1.0;"/><polygon fill="#A80036" points="227.0895,210.5,233.0895,214.5,239.0895,210.5,233.0895,206.5,227.0895,210.5" style="stroke: #A80036; stroke-width: 1.0;"/><text fill="#000000" font-family="sans-serif" font-size="13" lengthAdjust="spacingAndGlyphs" textLength="104" x="258" y="207.0684">resource_entries</text><text fill="#000000" font-family="sans-serif" font-size="13" lengthAdjust="spacingAndGlyphs" textLength="6" x="405.7751" y="223.9081">*</text><!--link Service to Datasource--><path d="M227.0895,237.0769 C298.4935,254.2368 387.8737,275.7166 442.1446,288.7591 " fill="none" id="Service-Datasource" style="stroke: #A80036; stroke-width: 1.0;"/><text fill="#000000" font-family="sans-serif" font-size="13" lengthAdjust="spacingAndGlyphs" textLength="69" x="275.5" y="242.0684">datasource</text><text fill="#000000" font-family="sans-serif" font-size="13" lengthAdjust="spacingAndGlyphs" textLength="8" x="426.3815" y="300.7274">1</text><!--link Service to GraphqlQuery--><path d="M239.3071,159.4125 C311.3355,133.9417 404.8449,108.5 491,108.5 C491,108.5 491,108.5 1166.5,108.5 C1266.8123,108.5 1382.025,99.7018 1457.321,92.7594 " fill="none" id="Service-GraphqlQuery" style="stroke: #A80036; stroke-width: 1.0;"/><polygon fill="#A80036" points="227.0276,163.8284,234.0272,165.562,238.3196,159.7676,231.32,158.034,227.0276,163.8284" style="stroke: #A80036; stroke-width: 1.0;"/><text fill="#000000" font-family="sans-serif" font-size="13" lengthAdjust="spacingAndGlyphs" textLength="101" x="766" y="105.0684">graphql_queries</text><text fill="#000000" font-family="sans-serif" font-size="13" lengthAdjust="spacingAndGlyphs" textLength="6" x="1443.5607" y="106.8115">*</text><!--link ResourceEntry to RestResource--><path d="M562.0301,219.447 C604.1187,224.7484 658.3584,231.5805 705.9413,237.574 " fill="none" id="ResourceEntry-RestResource" style="stroke: #A80036; stroke-width: 1.0;"/><text fill="#000000" font-family="sans-serif" font-size="13" lengthAdjust="spacingAndGlyphs" textLength="54" x="621" y="224.0684">resource</text><text fill="#000000" font-family="sans-serif" font-size="13" lengthAdjust="spacingAndGlyphs" textLength="8" x="689.8864" y="249.7125">1</text><!--link RestResource to RestOperation--><path d="M940.4024,263.5362 C978.0528,267.1937 1019.1619,271.1872 1055.878,274.7539 " fill="none" id="RestResource-RestOperation" style="stroke: #A80036; stroke-width: 1.0;"/><polygon fill="#A80036" points="927.2422,262.2578,932.8273,266.8192,939.186,263.4181,933.6009,258.8567,927.2422,262.2578" style="stroke: #A80036; stroke-width: 1.0;"/><text fill="#000000" font-family="sans-serif" font-size="13" lengthAdjust="spacingAndGlyphs" textLength="67" x="958" y="262.0684">operations</text><text fill="#000000" font-family="sans-serif" font-size="13" lengthAdjust="spacingAndGlyphs" textLength="22" x="1026.0866" y="287.1386">1..*</text><!--
@startuml
left to right direction

class RestDataItem {
  <color:Green><&star></color>name: <color:GRAY>String</color>
  identifier: <color:GRAY>String</color>
  type: <color:GRAY>String?</color>
  dataType(): <color:GRAY>String</color>
  entity_name: <color:GRAY>String?</color>
  description: <color:GRAY>String</color>
  root: <color:GRAY>Boolean</color>
  multiple: <color:GRAY>Boolean</color>
  required: <color:GRAY>Boolean</color>
  default_value: <color:GRAY>String?</color>
  example_value: <color:GRAY>String</color>
  relatingEntities(): <color:GRAY>List<Entity></color>
}






RestDataItem *- - "*" RestDataItem : children





package laplacian.metamodel {
  class Entity {
  }
}


RestDataItem - - "0..1" Entity : entity



class GraphqlQuery {
  <color:Green><&star></color>name: <color:GRAY>String</color>
  identifier: <color:GRAY>String</color>
  description: <color:GRAY>String</color>
  <color:Green><&star></color>query: <color:GRAY>String</color>
  multiple: <color:GRAY>Boolean</color>
  record_entity_name: <color:GRAY>String?</color>
  record_type: <color:GRAY>String</color>
  return_type: <color:GRAY>String</color>
}





package laplacian.metamodel {
  class Entity {
  }
}


GraphqlQuery - - "0..1" Entity : record_entity



class RestOperation {
  <color:Green><&star></color>method: <color:GRAY>String</color>
  path: <color:GRAY>String</color>
  name: <color:GRAY>String</color>
  identifier: <color:GRAY>String</color>
  namespace: <color:GRAY>String</color>
  description: <color:GRAY>String</color>
  responseBodyType(): <color:GRAY>String</color>
  relatingEntities(): <color:GRAY>List<Entity></color>
  relatingTopLevelEntities(): <color:GRAY>List<Entity></color>
  responseBodyRoot(): <color:GRAY>RestDataItem?</color>
}






RestOperation *- - "*" RestDataItem : path_parameters






RestOperation *- - "*" RestDataItem : request_headers






RestOperation *- - "*" RestDataItem : query_parameters






RestOperation *- - "*" RestDataItem : request_body






RestOperation *- - "*" RestDataItem : response_headers






RestOperation *- - "*" RestDataItem : response_body



class Service {
  <color:Green><&star></color>name: <color:GRAY>String</color>
  identifier: <color:GRAY>String</color>
  <color:Green><&star></color>version: <color:GRAY>String</color>
  api_version: <color:GRAY>String</color>
  endpoint: <color:GRAY>String</color>
  host: <color:GRAY>String</color>
  port: <color:GRAY>Int</color>
  protocol: <color:GRAY>String</color>
  path: <color:GRAY>String</color>
  namespace: <color:GRAY>String</color>
  description: <color:GRAY>String</color>
  <color:Green><&star></color>datasource_name: <color:GRAY>String</color>
  resources(): <color:GRAY>List<RestResource></color>
  relatingEntities(): <color:GRAY>List<Entity></color>
  relatingTopLevelEntities(): <color:GRAY>List<Entity></color>
}






Service *- - "*" ResourceEntry : resource_entries





package laplacian_arch.datasource {
  class Datasource {
  }
}


Service - - "1" Datasource : datasource






Service *- - "*" GraphqlQuery : graphql_queries



class ResourceEntry {
  <color:Green><&star></color>resource_name: <color:GRAY>String</color>
}






ResourceEntry - - "1" RestResource : resource



class RestResource {
  <color:Green><&star></color>name: <color:GRAY>String</color>
  identifier: <color:GRAY>String</color>
  namespace: <color:GRAY>String</color>
  path: <color:GRAY>String</color>
  description: <color:GRAY>String</color>
  relatingEntities(): <color:GRAY>List<Entity></color>
  relatingTopLevelEntities(): <color:GRAY>List<Entity></color>
}






RestResource *- - "1..*" RestOperation : operations



@enduml

PlantUML version 1.2019.05(Sun Apr 21 01:45:36 JST 2019)
(GPL source distribution)
Java Runtime: OpenJDK Runtime Environment
JVM: OpenJDK 64-Bit Server VM
Java Version: 1.8.0_172-b01
Operating System: Mac OS X
OS Version: 10.14.4
Default Encoding: UTF-8
Language: en
Country: JP
--></g></svg>