<?xml version="1.0" encoding="UTF-8" standalone="no"?><svg xmlns="http://www.w3.org/2000/svg" xmlns:xlink="http://www.w3.org/1999/xlink" contentScriptType="application/ecmascript" contentStyleType="text/css" height="399px" preserveAspectRatio="none" style="width:971px;height:399px;" version="1.1" viewBox="0 0 971 399" width="971px" zoomAndPan="magnify"><defs><filter height="300%" id="f1fpu2hqcxh7le" width="300%" x="-1" y="-1"><feGaussianBlur result="blurOut" stdDeviation="2.0"/><feColorMatrix in="blurOut" result="blurOut2" type="matrix" values="0 0 0 0 0 0 0 0 0 0 0 0 0 0 0 0 0 0 .4 0"/><feOffset dx="4.0" dy="4.0" in="blurOut2" result="blurOut3"/><feBlend in="SourceGraphic" in2="blurOut3" mode="normal"/></filter></defs><g><!--cluster laplacian.metamodel--><polygon fill="#FFFFFF" filter="url(#f1fpu2hqcxh7le)" points="785.5,24.5,939.5,24.5,946.5,46.9883,949.5,46.9883,949.5,123.5,785.5,123.5,785.5,24.5" style="stroke: #000000; stroke-width: 1.5;"/><line style="stroke: #000000; stroke-width: 1.5;" x1="785.5" x2="946.5" y1="46.9883" y2="46.9883"/><text fill="#000000" font-family="sans-serif" font-size="14" font-weight="bold" lengthAdjust="spacingAndGlyphs" textLength="148" x="789.5" y="40.0352">laplacian.metamodel</text><!--class Entity--><rect fill="#FEFECE" filter="url(#f1fpu2hqcxh7le)" height="48" id="Entity" style="stroke: #A80036; stroke-width: 1.5;" width="63" x="835.5" y="59.5"/><ellipse cx="850.5" cy="75.5" fill="#ADD1B2" rx="11" ry="11" style="stroke: #A80036; stroke-width: 1.0;"/><path d="M852.9731,81.6431 Q852.3921,81.9419 851.7529,82.0913 Q851.1138,82.2407 850.4082,82.2407 Q847.9014,82.2407 846.5815,80.5889 Q845.2617,78.937 845.2617,75.8159 Q845.2617,72.6865 846.5815,71.0347 Q847.9014,69.3828 850.4082,69.3828 Q851.1138,69.3828 851.7612,69.5322 Q852.4087,69.6816 852.9731,69.9805 L852.9731,72.7031 Q852.3423,72.1221 851.7488,71.8523 Q851.1553,71.5825 850.5244,71.5825 Q849.1797,71.5825 848.4949,72.6492 Q847.8101,73.7158 847.8101,75.8159 Q847.8101,77.9077 848.4949,78.9744 Q849.1797,80.041 850.5244,80.041 Q851.1553,80.041 851.7488,79.7712 Q852.3423,79.5015 852.9731,78.9204 Z "/><text fill="#000000" font-family="sans-serif" font-size="12" lengthAdjust="spacingAndGlyphs" textLength="31" x="864.5" y="80.0352">Entity</text><line style="stroke: #A80036; stroke-width: 1.5;" x1="836.5" x2="897.5" y1="91.5" y2="91.5"/><line style="stroke: #A80036; stroke-width: 1.5;" x1="836.5" x2="897.5" y1="99.5" y2="99.5"/><!--class GraphqlType--><a href="/blob/master/doc/entities/GraphqlType.md" target="_top" xlink:actuate="onRequest" xlink:show="new" xlink:title="/blob/master/doc/entities/GraphqlType.md" xlink:type="simple"><rect fill="#FEFECE" filter="url(#f1fpu2hqcxh7le)" height="86.8652" id="GraphqlType" style="stroke: #A80036; stroke-width: 1.5;" width="141.6667" x="796" y="180"/><ellipse cx="826.15" cy="196" fill="#ADD1B2" rx="11" ry="11" style="stroke: #A80036; stroke-width: 1.0;"/><path d="M828.6231,202.1431 Q828.0421,202.4419 827.4029,202.5913 Q826.7638,202.7407 826.0582,202.7407 Q823.5514,202.7407 822.2315,201.0889 Q820.9117,199.437 820.9117,196.3159 Q820.9117,193.1865 822.2315,191.5347 Q823.5514,189.8828 826.0582,189.8828 Q826.7638,189.8828 827.4112,190.0322 Q828.0587,190.1816 828.6231,190.4805 L828.6231,193.2031 Q827.9923,192.6221 827.3988,192.3523 Q826.8053,192.0825 826.1744,192.0825 Q824.8297,192.0825 824.1449,193.1492 Q823.4601,194.2158 823.4601,196.3159 Q823.4601,198.4077 824.1449,199.4744 Q824.8297,200.541 826.1744,200.541 Q826.8053,200.541 827.3988,200.2712 Q827.9923,200.0015 828.6231,199.4204 Z "/><text fill="#000000" font-family="sans-serif" font-size="12" lengthAdjust="spacingAndGlyphs" textLength="76" x="843.5167" y="200.5352">GraphqlType</text><line style="stroke: #A80036; stroke-width: 1.5;" x1="797" x2="936.6667" y1="212" y2="212"/><path d="M808.0417,218.8717 C806.7767,218.8717 805.75,219.8984 805.75,221.1634 C805.75,221.3101 805.7803,221.4357 805.8078,221.5649 L803,224.3727 L803,226.206 L805.75,226.206 L805.75,224.3727 L807.5833,224.3727 L807.5833,223.456 L807.6411,223.3982 C807.7694,223.4257 807.895,223.456 808.0426,223.456 C809.3076,223.456 810.3343,222.4293 810.3343,221.1643 C810.3343,219.8993 809.3076,218.8727 808.0426,218.8727 M808.5009,219.7893 C809.0051,219.7893 809.4176,220.2018 809.4176,220.706 C809.4176,221.2102 809.0051,221.6227 808.5009,221.6227 C807.9968,221.6227 807.5843,221.2102 807.5843,220.706 C807.5843,220.2018 807.9968,219.7893 808.5009,219.7893 " fill="#FF0000" style="stroke: ; stroke-width: 0.0; stroke-dasharray: ;"/><path d="M816,218.8717 L815.0833,221.6217 L812.3333,221.6217 L814.625,223.4551 L813.7083,226.2051 L816,224.3717 L818.2917,226.2051 L817.375,223.4551 L819.6667,221.6217 L816.9167,221.6217 L816,218.8717 " fill="#008000" style="stroke: ; stroke-width: 0.0; stroke-dasharray: ;"/></a><a href="/blob/master/doc/entities/GraphqlType.md#name-string" target="_top" xlink:actuate="onRequest" xlink:show="new" xlink:title="/blob/master/doc/entities/GraphqlType.md#name-string" xlink:type="simple"><text fill="#0000FF" font-family="sans-serif" font-size="11" lengthAdjust="spacingAndGlyphs" text-decoration="underline" textLength="29" x="820.6667" y="226.6348">name</text></a><text fill="#000000" font-family="sans-serif" font-size="11" lengthAdjust="spacingAndGlyphs" textLength="3" x="849.6667" y="226.6348">:</text><text fill="#808080" font-family="sans-serif" font-size="11" lengthAdjust="spacingAndGlyphs" textLength="32" x="855.6667" y="226.6348">String</text><path d="M803,231.8268 L803,239.1602 L803.9167,239.1602 L803.9167,231.8268 L803,231.8268 M804.8333,231.8268 L804.8333,235.4935 L806.6667,235.4935 L806.6667,236.4102 L810.3333,236.4102 L808.5,234.6052 L810.3333,232.7435 L807.5833,232.7435 L807.5833,231.8268 L804.8333,231.8268 " fill="#FF0000" style="stroke: ; stroke-width: 0.0; stroke-dasharray: ;"/><path d="M816,231.8268 L815.0833,234.5768 L812.3333,234.5768 L814.625,236.4102 L813.7083,239.1602 L816,237.3268 L818.2917,239.1602 L817.375,236.4102 L819.6667,234.5768 L816.9167,234.5768 L816,231.8268 " fill="#008000" style="stroke: ; stroke-width: 0.0; stroke-dasharray: ;"/><a href="/blob/master/doc/entities/GraphqlType.md#resolver_type-string" target="_top" xlink:actuate="onRequest" xlink:show="new" xlink:title="/blob/master/doc/entities/GraphqlType.md#resolver_type-string" xlink:type="simple"><text fill="#0000FF" font-family="sans-serif" font-size="11" lengthAdjust="spacingAndGlyphs" text-decoration="underline" textLength="73" x="820.6667" y="239.5898">resolver_type</text></a><text fill="#000000" font-family="sans-serif" font-size="11" lengthAdjust="spacingAndGlyphs" textLength="3" x="893.6667" y="239.5898">:</text><text fill="#808080" font-family="sans-serif" font-size="11" lengthAdjust="spacingAndGlyphs" textLength="32" x="899.6667" y="239.5898">String</text><a href="/blob/master/doc/entities/GraphqlType.md#description-string" target="_top" xlink:actuate="onRequest" xlink:show="new" xlink:title="/blob/master/doc/entities/GraphqlType.md#description-string" xlink:type="simple"><text fill="#0000FF" font-family="sans-serif" font-size="11" lengthAdjust="spacingAndGlyphs" text-decoration="underline" textLength="61" x="802" y="252.5449">description</text></a><text fill="#000000" font-family="sans-serif" font-size="11" lengthAdjust="spacingAndGlyphs" textLength="3" x="863" y="252.5449">:</text><text fill="#808080" font-family="sans-serif" font-size="11" lengthAdjust="spacingAndGlyphs" textLength="32" x="869" y="252.5449">String</text><line style="stroke: #A80036; stroke-width: 1.5;" x1="797" x2="936.6667" y1="258.8652" y2="258.8652"/><!--class EntityOnDatabase--><a href="/blob/master/doc/entities/EntityOnDatabase.md" target="_top" xlink:actuate="onRequest" xlink:show="new" xlink:title="/blob/master/doc/entities/EntityOnDatabase.md" xlink:type="simple"><rect fill="#FEFECE" filter="url(#f1fpu2hqcxh7le)" height="73.9102" id="EntityOnDatabase" style="stroke: #A80036; stroke-width: 1.5;" width="145" x="473" y="46.5"/><ellipse cx="492.95" cy="62.5" fill="#ADD1B2" rx="11" ry="11" style="stroke: #A80036; stroke-width: 1.0;"/><path d="M495.4231,68.6431 Q494.8421,68.9419 494.2029,69.0913 Q493.5638,69.2407 492.8582,69.2407 Q490.3514,69.2407 489.0315,67.5889 Q487.7117,65.937 487.7117,62.8159 Q487.7117,59.6865 489.0315,58.0347 Q490.3514,56.3828 492.8582,56.3828 Q493.5638,56.3828 494.2112,56.5322 Q494.8587,56.6816 495.4231,56.9805 L495.4231,59.7031 Q494.7923,59.1221 494.1988,58.8523 Q493.6053,58.5825 492.9744,58.5825 Q491.6297,58.5825 490.9449,59.6492 Q490.2601,60.7158 490.2601,62.8159 Q490.2601,64.9077 490.9449,65.9744 Q491.6297,67.041 492.9744,67.041 Q493.6053,67.041 494.1988,66.7712 Q494.7923,66.5015 495.4231,65.9204 Z "/><text fill="#000000" font-family="sans-serif" font-size="12" lengthAdjust="spacingAndGlyphs" textLength="102" x="508.05" y="67.0352">EntityOnDatabase</text><line style="stroke: #A80036; stroke-width: 1.5;" x1="474" x2="617" y1="78.5" y2="78.5"/><path d="M483.6667,85.3717 L482.75,88.1217 L480,88.1217 L482.2917,89.9551 L481.375,92.7051 L483.6667,90.8717 L485.9583,92.7051 L485.0417,89.9551 L487.3333,88.1217 L484.5833,88.1217 L483.6667,85.3717 " fill="#008000" style="stroke: ; stroke-width: 0.0; stroke-dasharray: ;"/></a><a href="/blob/master/doc/entities/EntityOnDatabase.md#entity_name-string" target="_top" xlink:actuate="onRequest" xlink:show="new" xlink:title="/blob/master/doc/entities/EntityOnDatabase.md#entity_name-string" xlink:type="simple"><text fill="#0000FF" font-family="sans-serif" font-size="11" lengthAdjust="spacingAndGlyphs" text-decoration="underline" textLength="65" x="488.3333" y="93.1348">entity_name</text></a><text fill="#000000" font-family="sans-serif" font-size="11" lengthAdjust="spacingAndGlyphs" textLength="3" x="553.3333" y="93.1348">:</text><text fill="#808080" font-family="sans-serif" font-size="11" lengthAdjust="spacingAndGlyphs" textLength="32" x="559.3333" y="93.1348">String</text><a href="/blob/master/doc/entities/EntityOnDatabase.md#datasource_name-string" target="_top" xlink:actuate="onRequest" xlink:show="new" xlink:title="/blob/master/doc/entities/EntityOnDatabase.md#datasource_name-string" xlink:type="simple"><text fill="#0000FF" font-family="sans-serif" font-size="11" lengthAdjust="spacingAndGlyphs" text-decoration="underline" textLength="95" x="479" y="106.0898">datasource_name</text></a><text fill="#000000" font-family="sans-serif" font-size="11" lengthAdjust="spacingAndGlyphs" textLength="3" x="574" y="106.0898">:</text><text fill="#808080" font-family="sans-serif" font-size="11" lengthAdjust="spacingAndGlyphs" textLength="32" x="580" y="106.0898">String</text><line style="stroke: #A80036; stroke-width: 1.5;" x1="474" x2="617" y1="112.4102" y2="112.4102"/><!--class Service--><a href="/blob/master/doc/entities/Service.md" target="_top" xlink:actuate="onRequest" xlink:show="new" xlink:title="/blob/master/doc/entities/Service.md" xlink:type="simple"><rect fill="#FEFECE" filter="url(#f1fpu2hqcxh7le)" height="229.3711" id="Service" style="stroke: #A80036; stroke-width: 1.5;" width="257" x="6" y="159"/><ellipse cx="110.25" cy="175" fill="#ADD1B2" rx="11" ry="11" style="stroke: #A80036; stroke-width: 1.0;"/><path d="M112.7231,181.1431 Q112.1421,181.4419 111.5029,181.5913 Q110.8638,181.7407 110.1582,181.7407 Q107.6514,181.7407 106.3315,180.0889 Q105.0117,178.437 105.0117,175.3159 Q105.0117,172.1865 106.3315,170.5347 Q107.6514,168.8828 110.1582,168.8828 Q110.8638,168.8828 111.5112,169.0322 Q112.1587,169.1816 112.7231,169.4805 L112.7231,172.2031 Q112.0923,171.6221 111.4988,171.3523 Q110.9053,171.0825 110.2744,171.0825 Q108.9297,171.0825 108.2449,172.1492 Q107.5601,173.2158 107.5601,175.3159 Q107.5601,177.4077 108.2449,178.4744 Q108.9297,179.541 110.2744,179.541 Q110.9053,179.541 111.4988,179.2712 Q112.0923,179.0015 112.7231,178.4204 Z "/><text fill="#000000" font-family="sans-serif" font-size="12" lengthAdjust="spacingAndGlyphs" textLength="40" x="130.75" y="179.5352">Service</text><line style="stroke: #A80036; stroke-width: 1.5;" x1="7" x2="262" y1="191" y2="191"/><path d="M16.6667,197.8717 L15.75,200.6217 L13,200.6217 L15.2917,202.4551 L14.375,205.2051 L16.6667,203.3717 L18.9583,205.2051 L18.0417,202.4551 L20.3333,200.6217 L17.5833,200.6217 L16.6667,197.8717 " fill="#008000" style="stroke: ; stroke-width: 0.0; stroke-dasharray: ;"/></a><a href="/blob/master/doc/entities/Service.md#name-string" target="_top" xlink:actuate="onRequest" xlink:show="new" xlink:title="/blob/master/doc/entities/Service.md#name-string" xlink:type="simple"><text fill="#0000FF" font-family="sans-serif" font-size="11" lengthAdjust="spacingAndGlyphs" text-decoration="underline" textLength="29" x="21.3333" y="205.6348">name</text></a><text fill="#000000" font-family="sans-serif" font-size="11" lengthAdjust="spacingAndGlyphs" textLength="3" x="50.3333" y="205.6348">:</text><text fill="#808080" font-family="sans-serif" font-size="11" lengthAdjust="spacingAndGlyphs" textLength="32" x="56.3333" y="205.6348">String</text><path d="M16.6667,210.8268 L15.75,213.5768 L13,213.5768 L15.2917,215.4102 L14.375,218.1602 L16.6667,216.3268 L18.9583,218.1602 L18.0417,215.4102 L20.3333,213.5768 L17.5833,213.5768 L16.6667,210.8268 " fill="#008000" style="stroke: ; stroke-width: 0.0; stroke-dasharray: ;"/><a href="/blob/master/doc/entities/Service.md#version-string" target="_top" xlink:actuate="onRequest" xlink:show="new" xlink:title="/blob/master/doc/entities/Service.md#version-string" xlink:type="simple"><text fill="#0000FF" font-family="sans-serif" font-size="11" lengthAdjust="spacingAndGlyphs" text-decoration="underline" textLength="40" x="21.3333" y="218.5898">version</text></a><text fill="#000000" font-family="sans-serif" font-size="11" lengthAdjust="spacingAndGlyphs" textLength="3" x="61.3333" y="218.5898">:</text><text fill="#808080" font-family="sans-serif" font-size="11" lengthAdjust="spacingAndGlyphs" textLength="32" x="67.3333" y="218.5898">String</text><a href="/blob/master/doc/entities/Service.md#api_version-string" target="_top" xlink:actuate="onRequest" xlink:show="new" xlink:title="/blob/master/doc/entities/Service.md#api_version-string" xlink:type="simple"><text fill="#0000FF" font-family="sans-serif" font-size="11" lengthAdjust="spacingAndGlyphs" text-decoration="underline" textLength="62" x="12" y="231.5449">api_version</text></a><text fill="#000000" font-family="sans-serif" font-size="11" lengthAdjust="spacingAndGlyphs" textLength="3" x="74" y="231.5449">:</text><text fill="#808080" font-family="sans-serif" font-size="11" lengthAdjust="spacingAndGlyphs" textLength="32" x="80" y="231.5449">String</text><a href="/blob/master/doc/entities/Service.md#endpoint-string" target="_top" xlink:actuate="onRequest" xlink:show="new" xlink:title="/blob/master/doc/entities/Service.md#endpoint-string" xlink:type="simple"><text fill="#0000FF" font-family="sans-serif" font-size="11" lengthAdjust="spacingAndGlyphs" text-decoration="underline" textLength="48" x="12" y="244.5">endpoint</text></a><text fill="#000000" font-family="sans-serif" font-size="11" lengthAdjust="spacingAndGlyphs" textLength="3" x="60" y="244.5">:</text><text fill="#808080" font-family="sans-serif" font-size="11" lengthAdjust="spacingAndGlyphs" textLength="32" x="66" y="244.5">String</text><a href="/blob/master/doc/entities/Service.md#host-string" target="_top" xlink:actuate="onRequest" xlink:show="new" xlink:title="/blob/master/doc/entities/Service.md#host-string" xlink:type="simple"><text fill="#0000FF" font-family="sans-serif" font-size="11" lengthAdjust="spacingAndGlyphs" text-decoration="underline" textLength="24" x="12" y="257.4551">host</text></a><text fill="#000000" font-family="sans-serif" font-size="11" lengthAdjust="spacingAndGlyphs" textLength="3" x="36" y="257.4551">:</text><text fill="#808080" font-family="sans-serif" font-size="11" lengthAdjust="spacingAndGlyphs" textLength="32" x="42" y="257.4551">String</text><a href="/blob/master/doc/entities/Service.md#port-int" target="_top" xlink:actuate="onRequest" xlink:show="new" xlink:title="/blob/master/doc/entities/Service.md#port-int" xlink:type="simple"><text fill="#0000FF" font-family="sans-serif" font-size="11" lengthAdjust="spacingAndGlyphs" text-decoration="underline" textLength="23" x="12" y="270.4102">port</text></a><text fill="#000000" font-family="sans-serif" font-size="11" lengthAdjust="spacingAndGlyphs" textLength="3" x="35" y="270.4102">:</text><text fill="#808080" font-family="sans-serif" font-size="11" lengthAdjust="spacingAndGlyphs" textLength="14" x="41" y="270.4102">Int</text><a href="/blob/master/doc/entities/Service.md#protocol-string" target="_top" xlink:actuate="onRequest" xlink:show="new" xlink:title="/blob/master/doc/entities/Service.md#protocol-string" xlink:type="simple"><text fill="#0000FF" font-family="sans-serif" font-size="11" lengthAdjust="spacingAndGlyphs" text-decoration="underline" textLength="46" x="12" y="283.3652">protocol</text></a><text fill="#000000" font-family="sans-serif" font-size="11" lengthAdjust="spacingAndGlyphs" textLength="3" x="58" y="283.3652">:</text><text fill="#808080" font-family="sans-serif" font-size="11" lengthAdjust="spacingAndGlyphs" textLength="32" x="64" y="283.3652">String</text><a href="/blob/master/doc/entities/Service.md#path-string" target="_top" xlink:actuate="onRequest" xlink:show="new" xlink:title="/blob/master/doc/entities/Service.md#path-string" xlink:type="simple"><text fill="#0000FF" font-family="sans-serif" font-size="11" lengthAdjust="spacingAndGlyphs" text-decoration="underline" textLength="24" x="12" y="296.3203">path</text></a><text fill="#000000" font-family="sans-serif" font-size="11" lengthAdjust="spacingAndGlyphs" textLength="3" x="36" y="296.3203">:</text><text fill="#808080" font-family="sans-serif" font-size="11" lengthAdjust="spacingAndGlyphs" textLength="32" x="42" y="296.3203">String</text><a href="/blob/master/doc/entities/Service.md#namespace-string" target="_top" xlink:actuate="onRequest" xlink:show="new" xlink:title="/blob/master/doc/entities/Service.md#namespace-string" xlink:type="simple"><text fill="#0000FF" font-family="sans-serif" font-size="11" lengthAdjust="spacingAndGlyphs" text-decoration="underline" textLength="60" x="12" y="309.2754">namespace</text></a><text fill="#000000" font-family="sans-serif" font-size="11" lengthAdjust="spacingAndGlyphs" textLength="3" x="72" y="309.2754">:</text><text fill="#808080" font-family="sans-serif" font-size="11" lengthAdjust="spacingAndGlyphs" textLength="32" x="78" y="309.2754">String</text><a href="/blob/master/doc/entities/Service.md#description-string" target="_top" xlink:actuate="onRequest" xlink:show="new" xlink:title="/blob/master/doc/entities/Service.md#description-string" xlink:type="simple"><text fill="#0000FF" font-family="sans-serif" font-size="11" lengthAdjust="spacingAndGlyphs" text-decoration="underline" textLength="61" x="12" y="322.2305">description</text></a><text fill="#000000" font-family="sans-serif" font-size="11" lengthAdjust="spacingAndGlyphs" textLength="3" x="73" y="322.2305">:</text><text fill="#808080" font-family="sans-serif" font-size="11" lengthAdjust="spacingAndGlyphs" textLength="32" x="79" y="322.2305">String</text><line style="stroke: #A80036; stroke-width: 1.5;" x1="7" x2="262" y1="328.5508" y2="328.5508"/><a href="/blob/master/doc/entities/Service.md#default_datasource-datasource" target="_top" xlink:actuate="onRequest" xlink:show="new" xlink:title="/blob/master/doc/entities/Service.md#default_datasource-datasource" xlink:type="simple"><text fill="#0000FF" font-family="sans-serif" font-size="11" lengthAdjust="spacingAndGlyphs" text-decoration="underline" textLength="98" x="12" y="343.1855">defaultDatasource</text></a><text fill="#000000" font-family="sans-serif" font-size="11" lengthAdjust="spacingAndGlyphs" textLength="11" x="110" y="343.1855">():</text><text fill="#808080" font-family="sans-serif" font-size="11" lengthAdjust="spacingAndGlyphs" textLength="66" x="124" y="343.1855">Datasource?</text><a href="/blob/master/doc/entities/Service.md#graphql_types-listGraphqlType" target="_top" xlink:actuate="onRequest" xlink:show="new" xlink:title="/blob/master/doc/entities/Service.md#graphql_types-listGraphqlType" xlink:type="simple"><text fill="#0000FF" font-family="sans-serif" font-size="11" lengthAdjust="spacingAndGlyphs" text-decoration="underline" textLength="74" x="12" y="356.1406">graphqlTypes</text></a><text fill="#000000" font-family="sans-serif" font-size="11" lengthAdjust="spacingAndGlyphs" textLength="11" x="86" y="356.1406">():</text><text fill="#808080" font-family="sans-serif" font-size="11" lengthAdjust="spacingAndGlyphs" textLength="106" x="100" y="356.1406">List&lt;GraphqlType&gt;</text><a href="/blob/master/doc/entities/Service.md#entities_used_in_graphql-listEntity" target="_top" xlink:actuate="onRequest" xlink:show="new" xlink:title="/blob/master/doc/entities/Service.md#entities_used_in_graphql-listEntity" xlink:type="simple"><text fill="#0000FF" font-family="sans-serif" font-size="11" lengthAdjust="spacingAndGlyphs" text-decoration="underline" textLength="119" x="12" y="369.0957">entitiesUsedInGraphql</text></a><text fill="#000000" font-family="sans-serif" font-size="11" lengthAdjust="spacingAndGlyphs" textLength="11" x="131" y="369.0957">():</text><text fill="#808080" font-family="sans-serif" font-size="11" lengthAdjust="spacingAndGlyphs" textLength="67" x="145" y="369.0957">List&lt;Entity&gt;</text><a href="/blob/master/doc/entities/Service.md#top_level_entities_used_in_graphql-listEntity" target="_top" xlink:actuate="onRequest" xlink:show="new" xlink:title="/blob/master/doc/entities/Service.md#top_level_entities_used_in_graphql-listEntity" xlink:type="simple"><text fill="#0000FF" font-family="sans-serif" font-size="11" lengthAdjust="spacingAndGlyphs" text-decoration="underline" textLength="164" x="12" y="382.0508">topLevelEntitiesUsedInGraphql</text></a><text fill="#000000" font-family="sans-serif" font-size="11" lengthAdjust="spacingAndGlyphs" textLength="11" x="176" y="382.0508">():</text><text fill="#808080" font-family="sans-serif" font-size="11" lengthAdjust="spacingAndGlyphs" textLength="67" x="190" y="382.0508">List&lt;Entity&gt;</text><!--class Datasource--><a href="/blob/master/doc/entities/Datasource.md" target="_top" xlink:actuate="onRequest" xlink:show="new" xlink:title="/blob/master/doc/entities/Datasource.md" xlink:type="simple"><rect fill="#FEFECE" filter="url(#f1fpu2hqcxh7le)" height="112.7754" id="Datasource" style="stroke: #A80036; stroke-width: 1.5;" width="177" x="457" y="156"/><ellipse cx="508.75" cy="172" fill="#ADD1B2" rx="11" ry="11" style="stroke: #A80036; stroke-width: 1.0;"/><path d="M511.2231,178.1431 Q510.6421,178.4419 510.0029,178.5913 Q509.3638,178.7407 508.6582,178.7407 Q506.1514,178.7407 504.8315,177.0889 Q503.5117,175.437 503.5117,172.3159 Q503.5117,169.1865 504.8315,167.5347 Q506.1514,165.8828 508.6582,165.8828 Q509.3638,165.8828 510.0112,166.0322 Q510.6587,166.1816 511.2231,166.4805 L511.2231,169.2031 Q510.5923,168.6221 509.9988,168.3523 Q509.4053,168.0825 508.7744,168.0825 Q507.4297,168.0825 506.7449,169.1492 Q506.0601,170.2158 506.0601,172.3159 Q506.0601,174.4077 506.7449,175.4744 Q507.4297,176.541 508.7744,176.541 Q509.4053,176.541 509.9988,176.2712 Q510.5923,176.0015 511.2231,175.4204 Z "/><text fill="#000000" font-family="sans-serif" font-size="12" lengthAdjust="spacingAndGlyphs" textLength="65" x="529.25" y="176.5352">Datasource</text><line style="stroke: #A80036; stroke-width: 1.5;" x1="458" x2="633" y1="188" y2="188"/><path d="M469.0417,194.8717 C467.7767,194.8717 466.75,195.8984 466.75,197.1634 C466.75,197.3101 466.7803,197.4357 466.8078,197.5649 L464,200.3727 L464,202.206 L466.75,202.206 L466.75,200.3727 L468.5833,200.3727 L468.5833,199.456 L468.6411,199.3982 C468.7694,199.4257 468.895,199.456 469.0426,199.456 C470.3076,199.456 471.3343,198.4293 471.3343,197.1643 C471.3343,195.8993 470.3076,194.8727 469.0426,194.8727 M469.5009,195.7893 C470.0051,195.7893 470.4176,196.2018 470.4176,196.706 C470.4176,197.2102 470.0051,197.6227 469.5009,197.6227 C468.9968,197.6227 468.5843,197.2102 468.5843,196.706 C468.5843,196.2018 468.9968,195.7893 469.5009,195.7893 " fill="#FF0000" style="stroke: ; stroke-width: 0.0; stroke-dasharray: ;"/></a><a href="/blob/master/doc/entities/Datasource.md#name-string" target="_top" xlink:actuate="onRequest" xlink:show="new" xlink:title="/blob/master/doc/entities/Datasource.md#name-string" xlink:type="simple"><text fill="#0000FF" font-family="sans-serif" font-size="11" lengthAdjust="spacingAndGlyphs" text-decoration="underline" textLength="29" x="472.3333" y="202.6348">name</text></a><text fill="#000000" font-family="sans-serif" font-size="11" lengthAdjust="spacingAndGlyphs" textLength="3" x="501.3333" y="202.6348">:</text><text fill="#808080" font-family="sans-serif" font-size="11" lengthAdjust="spacingAndGlyphs" textLength="32" x="507.3333" y="202.6348">String</text><path d="M467.6667,207.8268 L466.75,210.5768 L464,210.5768 L466.2917,212.4102 L465.375,215.1602 L467.6667,213.3268 L469.9583,215.1602 L469.0417,212.4102 L471.3333,210.5768 L468.5833,210.5768 L467.6667,207.8268 " fill="#008000" style="stroke: ; stroke-width: 0.0; stroke-dasharray: ;"/><a href="/blob/master/doc/entities/Datasource.md#type-string" target="_top" xlink:actuate="onRequest" xlink:show="new" xlink:title="/blob/master/doc/entities/Datasource.md#type-string" xlink:type="simple"><text fill="#0000FF" font-family="sans-serif" font-size="11" lengthAdjust="spacingAndGlyphs" text-decoration="underline" textLength="23" x="472.3333" y="215.5898">type</text></a><text fill="#000000" font-family="sans-serif" font-size="11" lengthAdjust="spacingAndGlyphs" textLength="3" x="495.3333" y="215.5898">:</text><text fill="#808080" font-family="sans-serif" font-size="11" lengthAdjust="spacingAndGlyphs" textLength="32" x="501.3333" y="215.5898">String</text><a href="/blob/master/doc/entities/Datasource.md#description-string" target="_top" xlink:actuate="onRequest" xlink:show="new" xlink:title="/blob/master/doc/entities/Datasource.md#description-string" xlink:type="simple"><text fill="#0000FF" font-family="sans-serif" font-size="11" lengthAdjust="spacingAndGlyphs" text-decoration="underline" textLength="61" x="463" y="228.5449">description</text></a><text fill="#000000" font-family="sans-serif" font-size="11" lengthAdjust="spacingAndGlyphs" textLength="3" x="524" y="228.5449">:</text><text fill="#808080" font-family="sans-serif" font-size="11" lengthAdjust="spacingAndGlyphs" textLength="32" x="530" y="228.5449">String</text><line style="stroke: #A80036; stroke-width: 1.5;" x1="458" x2="633" y1="234.8652" y2="234.8652"/><a href="/blob/master/doc/entities/Datasource.md#entities-listEntity" target="_top" xlink:actuate="onRequest" xlink:show="new" xlink:title="/blob/master/doc/entities/Datasource.md#entities-listEntity" xlink:type="simple"><text fill="#0000FF" font-family="sans-serif" font-size="11" lengthAdjust="spacingAndGlyphs" text-decoration="underline" textLength="39" x="463" y="249.5">entities</text></a><text fill="#000000" font-family="sans-serif" font-size="11" lengthAdjust="spacingAndGlyphs" textLength="11" x="502" y="249.5">():</text><text fill="#808080" font-family="sans-serif" font-size="11" lengthAdjust="spacingAndGlyphs" textLength="67" x="516" y="249.5">List&lt;Entity&gt;</text><a href="/blob/master/doc/entities/Datasource.md#top_level_entities-listEntity" target="_top" xlink:actuate="onRequest" xlink:show="new" xlink:title="/blob/master/doc/entities/Datasource.md#top_level_entities-listEntity" xlink:type="simple"><text fill="#0000FF" font-family="sans-serif" font-size="11" lengthAdjust="spacingAndGlyphs" text-decoration="underline" textLength="84" x="463" y="262.4551">topLevelEntities</text></a><text fill="#000000" font-family="sans-serif" font-size="11" lengthAdjust="spacingAndGlyphs" textLength="11" x="547" y="262.4551">():</text><text fill="#808080" font-family="sans-serif" font-size="11" lengthAdjust="spacingAndGlyphs" textLength="67" x="561" y="262.4551">List&lt;Entity&gt;</text><!--class GraphqlTypeEntry--><a href="/blob/master/doc/entities/GraphqlTypeEntry.md" target="_top" xlink:actuate="onRequest" xlink:show="new" xlink:title="/blob/master/doc/entities/GraphqlTypeEntry.md" xlink:type="simple"><rect fill="#FEFECE" filter="url(#f1fpu2hqcxh7le)" height="60.9551" id="GraphqlTypeEntry" style="stroke: #A80036; stroke-width: 1.5;" width="137" x="477" y="304"/><ellipse cx="492" cy="320" fill="#ADD1B2" rx="11" ry="11" style="stroke: #A80036; stroke-width: 1.0;"/><path d="M494.4731,326.1431 Q493.8921,326.4419 493.2529,326.5913 Q492.6138,326.7407 491.9082,326.7407 Q489.4014,326.7407 488.0815,325.0889 Q486.7617,323.437 486.7617,320.3159 Q486.7617,317.1865 488.0815,315.5347 Q489.4014,313.8828 491.9082,313.8828 Q492.6138,313.8828 493.2612,314.0322 Q493.9087,314.1816 494.4731,314.4805 L494.4731,317.2031 Q493.8423,316.6221 493.2488,316.3523 Q492.6553,316.0825 492.0244,316.0825 Q490.6797,316.0825 489.9949,317.1492 Q489.3101,318.2158 489.3101,320.3159 Q489.3101,322.4077 489.9949,323.4744 Q490.6797,324.541 492.0244,324.541 Q492.6553,324.541 493.2488,324.2712 Q493.8423,324.0015 494.4731,323.4204 Z "/><text fill="#000000" font-family="sans-serif" font-size="12" lengthAdjust="spacingAndGlyphs" textLength="105" x="506" y="324.5352">GraphqlTypeEntry</text><line style="stroke: #A80036; stroke-width: 1.5;" x1="478" x2="613" y1="336" y2="336"/><path d="M487.6667,342.8717 L486.75,345.6217 L484,345.6217 L486.2917,347.4551 L485.375,350.2051 L487.6667,348.3717 L489.9583,350.2051 L489.0417,347.4551 L491.3333,345.6217 L488.5833,345.6217 L487.6667,342.8717 " fill="#008000" style="stroke: ; stroke-width: 0.0; stroke-dasharray: ;"/></a><a href="/blob/master/doc/entities/GraphqlTypeEntry.md#name-string" target="_top" xlink:actuate="onRequest" xlink:show="new" xlink:title="/blob/master/doc/entities/GraphqlTypeEntry.md#name-string" xlink:type="simple"><text fill="#0000FF" font-family="sans-serif" font-size="11" lengthAdjust="spacingAndGlyphs" text-decoration="underline" textLength="29" x="492.3333" y="350.6348">name</text></a><text fill="#000000" font-family="sans-serif" font-size="11" lengthAdjust="spacingAndGlyphs" textLength="3" x="521.3333" y="350.6348">:</text><text fill="#808080" font-family="sans-serif" font-size="11" lengthAdjust="spacingAndGlyphs" textLength="32" x="527.3333" y="350.6348">String</text><line style="stroke: #A80036; stroke-width: 1.5;" x1="478" x2="613" y1="356.9551" y2="356.9551"/><!--link EntityOnDatabase to GraphqlType--><path d="M618.2,114.92 C665.27,135.54 727.16,162.66 777.32,184.64 " fill="none" id="EntityOnDatabase-GraphqlType" style="stroke: #A80036; stroke-width: 1.0;"/><polygon fill="none" points="780.4,178.35,795.91,192.79,774.78,191.17,780.4,178.35" style="stroke: #A80036; stroke-width: 1.0;"/><!--link EntityOnDatabase to Entity--><path d="M618.2,83.5 C686.28,83.5 785.37,83.5 835.1,83.5 " fill="none" id="EntityOnDatabase-Entity" style="stroke: #A80036; stroke-width: 1.0;"/><text fill="#000000" font-family="sans-serif" font-size="13" lengthAdjust="spacingAndGlyphs" textLength="36" x="688" y="80.0684">entity</text><text fill="#000000" font-family="sans-serif" font-size="13" lengthAdjust="spacingAndGlyphs" textLength="8" x="819.6956" y="97.6473">1</text><!--link Service to Datasource--><path d="M276.28,252.5 C336.23,243.56 404.3,233.41 456.86,225.57 " fill="none" id="Service-Datasource" style="stroke: #A80036; stroke-width: 1.0;"/><polygon fill="#A80036" points="263.23,254.45,269.757,257.5157,275.0972,252.6699,268.5703,249.6042,263.23,254.45" style="stroke: #A80036; stroke-width: 1.0;"/><text fill="#000000" font-family="sans-serif" font-size="13" lengthAdjust="spacingAndGlyphs" textLength="76" x="322" y="227.0684">datasources</text><text fill="#000000" font-family="sans-serif" font-size="13" lengthAdjust="spacingAndGlyphs" textLength="6" x="442.9847" y="239.9291">*</text><!--link Service to GraphqlTypeEntry--><path d="M276.21,294.49 C344.09,304.61 422.38,316.29 476.8,324.4 " fill="none" id="Service-GraphqlTypeEntry" style="stroke: #A80036; stroke-width: 1.0;"/><polygon fill="#A80036" points="263.23,292.55,268.5703,297.3958,275.0972,294.3301,269.757,289.4843,263.23,292.55" style="stroke: #A80036; stroke-width: 1.0;"/><text fill="#000000" font-family="sans-serif" font-size="13" lengthAdjust="spacingAndGlyphs" textLength="132" x="294" y="295.0684">graphql_type_entries</text><text fill="#000000" font-family="sans-serif" font-size="13" lengthAdjust="spacingAndGlyphs" textLength="6" x="462.9578" y="336.7034">*</text><!--link GraphqlTypeEntry to GraphqlType--><path d="M614.26,310.96 C667.65,292.41 741.85,266.63 795.85,247.87 " fill="none" id="GraphqlTypeEntry-GraphqlType" style="stroke: #A80036; stroke-width: 1.0;"/><text fill="#000000" font-family="sans-serif" font-size="13" lengthAdjust="spacingAndGlyphs" textLength="82" x="665" y="262.0684">graphql_type</text><text fill="#000000" font-family="sans-serif" font-size="13" lengthAdjust="spacingAndGlyphs" textLength="8" x="780.1173" y="263.7479">1</text><!--
@startuml
left to right direction


class GraphqlType [[/blob/master/doc/entities/GraphqlType.md]] {
  <color:RED><&key></color><color:Green><&star></color>[[/blob/master/doc/entities/GraphqlType.md#name-string name]]: <color:GRAY>String</color>
  <color:RED><&flag></color><color:Green><&star></color>[[/blob/master/doc/entities/GraphqlType.md#resolver_type-string resolver_type]]: <color:GRAY>String</color>
  [[/blob/master/doc/entities/GraphqlType.md#description-string description]]: <color:GRAY>String</color>
}




class EntityOnDatabase [[/blob/master/doc/entities/EntityOnDatabase.md]] {
  <color:Green><&star></color>[[/blob/master/doc/entities/EntityOnDatabase.md#entity_name-string entity_name]]: <color:GRAY>String</color>
  [[/blob/master/doc/entities/EntityOnDatabase.md#datasource_name-string datasource_name]]: <color:GRAY>String</color>
}

EntityOnDatabase - -|> GraphqlType






package laplacian.metamodel {
  class Entity {
  }
}


EntityOnDatabase - - "1" Entity : entity




class Service [[/blob/master/doc/entities/Service.md]] {
  <color:Green><&star></color>[[/blob/master/doc/entities/Service.md#name-string name]]: <color:GRAY>String</color>
  <color:Green><&star></color>[[/blob/master/doc/entities/Service.md#version-string version]]: <color:GRAY>String</color>
  [[/blob/master/doc/entities/Service.md#api_version-string api_version]]: <color:GRAY>String</color>
  [[/blob/master/doc/entities/Service.md#endpoint-string endpoint]]: <color:GRAY>String</color>
  [[/blob/master/doc/entities/Service.md#host-string host]]: <color:GRAY>String</color>
  [[/blob/master/doc/entities/Service.md#port-int port]]: <color:GRAY>Int</color>
  [[/blob/master/doc/entities/Service.md#protocol-string protocol]]: <color:GRAY>String</color>
  [[/blob/master/doc/entities/Service.md#path-string path]]: <color:GRAY>String</color>
  [[/blob/master/doc/entities/Service.md#namespace-string namespace]]: <color:GRAY>String</color>
  [[/blob/master/doc/entities/Service.md#description-string description]]: <color:GRAY>String</color>
  [[/blob/master/doc/entities/Service.md#default_datasource-datasource defaultDatasource]](): <color:GRAY>Datasource?</color>
  [[/blob/master/doc/entities/Service.md#graphql_types-listGraphqlType graphqlTypes]](): <color:GRAY>List<GraphqlType></color>
  [[/blob/master/doc/entities/Service.md#entities_used_in_graphql-listEntity entitiesUsedInGraphql]](): <color:GRAY>List<Entity></color>
  [[/blob/master/doc/entities/Service.md#top_level_entities_used_in_graphql-listEntity topLevelEntitiesUsedInGraphql]](): <color:GRAY>List<Entity></color>
}






Service *- - "*" Datasource : datasources






Service *- - "*" GraphqlTypeEntry : graphql_type_entries




class Datasource [[/blob/master/doc/entities/Datasource.md]] {
  <color:RED><&key></color>[[/blob/master/doc/entities/Datasource.md#name-string name]]: <color:GRAY>String</color>
  <color:Green><&star></color>[[/blob/master/doc/entities/Datasource.md#type-string type]]: <color:GRAY>String</color>
  [[/blob/master/doc/entities/Datasource.md#description-string description]]: <color:GRAY>String</color>
  [[/blob/master/doc/entities/Datasource.md#entities-listEntity entities]](): <color:GRAY>List<Entity></color>
  [[/blob/master/doc/entities/Datasource.md#top_level_entities-listEntity topLevelEntities]](): <color:GRAY>List<Entity></color>
}




class GraphqlTypeEntry [[/blob/master/doc/entities/GraphqlTypeEntry.md]] {
  <color:Green><&star></color>[[/blob/master/doc/entities/GraphqlTypeEntry.md#name-string name]]: <color:GRAY>String</color>
}






GraphqlTypeEntry - - "1" GraphqlType : graphql_type



@enduml

PlantUML version 1.2019.05(Sun Apr 21 01:45:36 JST 2019)
(GPL source distribution)
Java Runtime: OpenJDK Runtime Environment
JVM: OpenJDK 64-Bit Server VM
Java Version: 11.0.7+10-LTS
Operating System: Mac OS X
OS Version: 10.15.6
Default Encoding: UTF-8
Language: en
Country: JP
--></g></svg>