<?xml version="1.0" encoding="UTF-8" standalone="no"?><svg xmlns="http://www.w3.org/2000/svg" xmlns:xlink="http://www.w3.org/1999/xlink" contentScriptType="application/ecmascript" contentStyleType="text/css" height="1173px" preserveAspectRatio="none" style="width:826px;height:1173px;" version="1.1" viewBox="0 0 826 1173" width="826px" zoomAndPan="magnify"><defs><filter height="300%" id="f6bseez825eph" width="300%" x="-1" y="-1"><feGaussianBlur result="blurOut" stdDeviation="2.0"/><feColorMatrix in="blurOut" result="blurOut2" type="matrix" values="0 0 0 0 0 0 0 0 0 0 0 0 0 0 0 0 0 0 .4 0"/><feOffset dx="4.0" dy="4.0" in="blurOut2" result="blurOut3"/><feBlend in="SourceGraphic" in2="blurOut3" mode="normal"/></filter></defs><g><!--cluster laplacian.metamodel--><polygon fill="#FFFFFF" filter="url(#f6bseez825eph)" points="118,1078,272,1078,279,1100.4883,282,1100.4883,282,1161,118,1161,118,1078" style="stroke: #000000; stroke-width: 1.5;"/><line style="stroke: #000000; stroke-width: 1.5;" x1="118" x2="279" y1="1100.4883" y2="1100.4883"/><text fill="#000000" font-family="sans-serif" font-size="14" font-weight="bold" lengthAdjust="spacingAndGlyphs" textLength="148" x="122" y="1093.5352">laplacian.metamodel</text><!--cluster laplacian_arch.datasource--><polygon fill="#FFFFFF" filter="url(#f6bseez825eph)" points="271,267.5,459,267.5,466,289.9883,469,289.9883,469,350.5,271,350.5,271,267.5" style="stroke: #000000; stroke-width: 1.5;"/><line style="stroke: #000000; stroke-width: 1.5;" x1="271" x2="466" y1="289.9883" y2="289.9883"/><text fill="#000000" font-family="sans-serif" font-size="14" font-weight="bold" lengthAdjust="spacingAndGlyphs" textLength="182" x="275" y="283.0352">laplacian_arch.datasource</text><!--class Entity--><rect fill="#FEFECE" filter="url(#f6bseez825eph)" height="48" id="Entity" style="stroke: #A80036; stroke-width: 1.5;" width="63" x="168.5" y="1105"/><ellipse cx="183.5" cy="1121" fill="#ADD1B2" rx="11" ry="11" style="stroke: #A80036; stroke-width: 1.0;"/><path d="M185.9731,1127.1431 Q185.3921,1127.4419 184.7529,1127.5913 Q184.1138,1127.7407 183.4082,1127.7407 Q180.9014,1127.7407 179.5815,1126.0889 Q178.2617,1124.437 178.2617,1121.3159 Q178.2617,1118.1865 179.5815,1116.5347 Q180.9014,1114.8828 183.4082,1114.8828 Q184.1138,1114.8828 184.7612,1115.0322 Q185.4087,1115.1816 185.9731,1115.4805 L185.9731,1118.2031 Q185.3423,1117.6221 184.7488,1117.3523 Q184.1553,1117.0825 183.5244,1117.0825 Q182.1797,1117.0825 181.4949,1118.1492 Q180.8101,1119.2158 180.8101,1121.3159 Q180.8101,1123.4077 181.4949,1124.4744 Q182.1797,1125.541 183.5244,1125.541 Q184.1553,1125.541 184.7488,1125.2712 Q185.3423,1125.0015 185.9731,1124.4204 Z "/><text fill="#000000" font-family="sans-serif" font-size="12" lengthAdjust="spacingAndGlyphs" textLength="31" x="197.5" y="1125.5352">Entity</text><line style="stroke: #A80036; stroke-width: 1.5;" x1="169.5" x2="230.5" y1="1137" y2="1137"/><line style="stroke: #A80036; stroke-width: 1.5;" x1="169.5" x2="230.5" y1="1145" y2="1145"/><!--class Datasource--><rect fill="#FEFECE" filter="url(#f6bseez825eph)" height="48" id="Datasource" style="stroke: #A80036; stroke-width: 1.5;" width="97" x="288.5" y="294.5"/><ellipse cx="303.5" cy="310.5" fill="#ADD1B2" rx="11" ry="11" style="stroke: #A80036; stroke-width: 1.0;"/><path d="M305.9731,316.6431 Q305.3921,316.9419 304.7529,317.0913 Q304.1138,317.2407 303.4082,317.2407 Q300.9014,317.2407 299.5815,315.5889 Q298.2617,313.937 298.2617,310.8159 Q298.2617,307.6865 299.5815,306.0347 Q300.9014,304.3828 303.4082,304.3828 Q304.1138,304.3828 304.7612,304.5322 Q305.4087,304.6816 305.9731,304.9805 L305.9731,307.7031 Q305.3423,307.1221 304.7488,306.8523 Q304.1553,306.5825 303.5244,306.5825 Q302.1797,306.5825 301.4949,307.6492 Q300.8101,308.7158 300.8101,310.8159 Q300.8101,312.9077 301.4949,313.9744 Q302.1797,315.041 303.5244,315.041 Q304.1553,315.041 304.7488,314.7712 Q305.3423,314.5015 305.9731,313.9204 Z "/><text fill="#000000" font-family="sans-serif" font-size="12" lengthAdjust="spacingAndGlyphs" textLength="65" x="317.5" y="315.0352">Datasource</text><line style="stroke: #A80036; stroke-width: 1.5;" x1="289.5" x2="384.5" y1="326.5" y2="326.5"/><line style="stroke: #A80036; stroke-width: 1.5;" x1="289.5" x2="384.5" y1="334.5" y2="334.5"/><!--class RestDataItem--><rect fill="#FEFECE" filter="url(#f6bseez825eph)" height="190.5059" id="RestDataItem" style="stroke: #A80036; stroke-width: 1.5;" width="144" x="294" y="832"/><ellipse cx="324.75" cy="848" fill="#ADD1B2" rx="11" ry="11" style="stroke: #A80036; stroke-width: 1.0;"/><path d="M327.2231,854.1431 Q326.6421,854.4419 326.0029,854.5913 Q325.3638,854.7407 324.6582,854.7407 Q322.1514,854.7407 320.8315,853.0889 Q319.5117,851.437 319.5117,848.3159 Q319.5117,845.1865 320.8315,843.5347 Q322.1514,841.8828 324.6582,841.8828 Q325.3638,841.8828 326.0112,842.0322 Q326.6587,842.1816 327.2231,842.4805 L327.2231,845.2031 Q326.5923,844.6221 325.9988,844.3523 Q325.4053,844.0825 324.7744,844.0825 Q323.4297,844.0825 322.7449,845.1492 Q322.0601,846.2158 322.0601,848.3159 Q322.0601,850.4077 322.7449,851.4744 Q323.4297,852.541 324.7744,852.541 Q325.4053,852.541 325.9988,852.2712 Q326.5923,852.0015 327.2231,851.4204 Z "/><text fill="#000000" font-family="sans-serif" font-size="12" lengthAdjust="spacingAndGlyphs" textLength="77" x="342.25" y="852.5352">RestDataItem</text><line style="stroke: #A80036; stroke-width: 1.5;" x1="295" x2="437" y1="864" y2="864"/><ellipse cx="305" cy="875.9775" fill="none" rx="3" ry="3" style="stroke: #038048; stroke-width: 1.0;"/><text fill="#000000" font-family="sans-serif" font-size="11" lengthAdjust="spacingAndGlyphs" textLength="67" x="314" y="878.6348">name: String</text><ellipse cx="305" cy="888.9326" fill="none" rx="3" ry="3" style="stroke: #038048; stroke-width: 1.0;"/><text fill="#000000" font-family="sans-serif" font-size="11" lengthAdjust="spacingAndGlyphs" textLength="86" x="314" y="891.5898">identifier: String</text><ellipse cx="305" cy="901.8877" fill="none" rx="3" ry="3" style="stroke: #038048; stroke-width: 1.0;"/><text fill="#000000" font-family="sans-serif" font-size="11" lengthAdjust="spacingAndGlyphs" textLength="66" x="314" y="904.5449">type: String?</text><ellipse cx="305" cy="914.8428" fill="none" rx="3" ry="3" style="stroke: #038048; stroke-width: 1.0;"/><text fill="#000000" font-family="sans-serif" font-size="11" lengthAdjust="spacingAndGlyphs" textLength="118" x="314" y="917.5">{get} data_type: String</text><ellipse cx="305" cy="927.7979" fill="none" rx="3" ry="3" style="stroke: #038048; stroke-width: 1.0;"/><text fill="#000000" font-family="sans-serif" font-size="11" lengthAdjust="spacingAndGlyphs" textLength="108" x="314" y="930.4551">entity_name: String?</text><ellipse cx="305" cy="940.7529" fill="none" rx="3" ry="3" style="stroke: #038048; stroke-width: 1.0;"/><text fill="#000000" font-family="sans-serif" font-size="11" lengthAdjust="spacingAndGlyphs" textLength="99" x="314" y="943.4102">description: String</text><ellipse cx="305" cy="953.708" fill="none" rx="3" ry="3" style="stroke: #038048; stroke-width: 1.0;"/><text fill="#000000" font-family="sans-serif" font-size="11" lengthAdjust="spacingAndGlyphs" textLength="71" x="314" y="956.3652">root: Boolean</text><ellipse cx="305" cy="966.6631" fill="none" rx="3" ry="3" style="stroke: #038048; stroke-width: 1.0;"/><text fill="#000000" font-family="sans-serif" font-size="11" lengthAdjust="spacingAndGlyphs" textLength="91" x="314" y="969.3203">multiple: Boolean</text><ellipse cx="305" cy="979.6182" fill="none" rx="3" ry="3" style="stroke: #038048; stroke-width: 1.0;"/><text fill="#000000" font-family="sans-serif" font-size="11" lengthAdjust="spacingAndGlyphs" textLength="94" x="314" y="982.2754">required: Boolean</text><ellipse cx="305" cy="992.5732" fill="none" rx="3" ry="3" style="stroke: #038048; stroke-width: 1.0;"/><text fill="#000000" font-family="sans-serif" font-size="11" lengthAdjust="spacingAndGlyphs" textLength="114" x="314" y="995.2305">default_value: String?</text><ellipse cx="305" cy="1005.5283" fill="none" rx="3" ry="3" style="stroke: #038048; stroke-width: 1.0;"/><text fill="#000000" font-family="sans-serif" font-size="11" lengthAdjust="spacingAndGlyphs" textLength="117" x="314" y="1008.1855">example_value: String</text><line style="stroke: #A80036; stroke-width: 1.5;" x1="295" x2="437" y1="1014.5059" y2="1014.5059"/><!--class GraphqlQuery--><rect fill="#FEFECE" filter="url(#f6bseez825eph)" height="151.6406" id="GraphqlQuery" style="stroke: #A80036; stroke-width: 1.5;" width="176" x="6" y="851.5"/><ellipse cx="49.35" cy="867.5" fill="#ADD1B2" rx="11" ry="11" style="stroke: #A80036; stroke-width: 1.0;"/><path d="M51.8231,873.6431 Q51.2421,873.9419 50.6029,874.0913 Q49.9638,874.2407 49.2582,874.2407 Q46.7514,874.2407 45.4315,872.5889 Q44.1117,870.937 44.1117,867.8159 Q44.1117,864.6865 45.4315,863.0347 Q46.7514,861.3828 49.2582,861.3828 Q49.9638,861.3828 50.6112,861.5322 Q51.2587,861.6816 51.8231,861.9805 L51.8231,864.7031 Q51.1923,864.1221 50.5988,863.8523 Q50.0053,863.5825 49.3744,863.5825 Q48.0297,863.5825 47.3449,864.6492 Q46.6601,865.7158 46.6601,867.8159 Q46.6601,869.9077 47.3449,870.9744 Q48.0297,872.041 49.3744,872.041 Q50.0053,872.041 50.5988,871.7712 Q51.1923,871.5015 51.8231,870.9204 Z "/><text fill="#000000" font-family="sans-serif" font-size="12" lengthAdjust="spacingAndGlyphs" textLength="81" x="69.65" y="872.0352">GraphqlQuery</text><line style="stroke: #A80036; stroke-width: 1.5;" x1="7" x2="181" y1="883.5" y2="883.5"/><ellipse cx="17" cy="895.4775" fill="none" rx="3" ry="3" style="stroke: #038048; stroke-width: 1.0;"/><text fill="#000000" font-family="sans-serif" font-size="11" lengthAdjust="spacingAndGlyphs" textLength="67" x="26" y="898.1348">name: String</text><ellipse cx="17" cy="908.4326" fill="none" rx="3" ry="3" style="stroke: #038048; stroke-width: 1.0;"/><text fill="#000000" font-family="sans-serif" font-size="11" lengthAdjust="spacingAndGlyphs" textLength="86" x="26" y="911.0898">identifier: String</text><ellipse cx="17" cy="921.3877" fill="none" rx="3" ry="3" style="stroke: #038048; stroke-width: 1.0;"/><text fill="#000000" font-family="sans-serif" font-size="11" lengthAdjust="spacingAndGlyphs" textLength="99" x="26" y="924.0449">description: String</text><ellipse cx="17" cy="934.3428" fill="none" rx="3" ry="3" style="stroke: #038048; stroke-width: 1.0;"/><text fill="#000000" font-family="sans-serif" font-size="11" lengthAdjust="spacingAndGlyphs" textLength="69" x="26" y="937">query: String</text><ellipse cx="17" cy="947.2979" fill="none" rx="3" ry="3" style="stroke: #038048; stroke-width: 1.0;"/><text fill="#000000" font-family="sans-serif" font-size="11" lengthAdjust="spacingAndGlyphs" textLength="91" x="26" y="949.9551">multiple: Boolean</text><ellipse cx="17" cy="960.2529" fill="none" rx="3" ry="3" style="stroke: #038048; stroke-width: 1.0;"/><text fill="#000000" font-family="sans-serif" font-size="11" lengthAdjust="spacingAndGlyphs" textLength="150" x="26" y="962.9102">record_entity_name: String?</text><ellipse cx="17" cy="973.208" fill="none" rx="3" ry="3" style="stroke: #038048; stroke-width: 1.0;"/><text fill="#000000" font-family="sans-serif" font-size="11" lengthAdjust="spacingAndGlyphs" textLength="103" x="26" y="975.8652">record_type: String</text><ellipse cx="17" cy="986.1631" fill="none" rx="3" ry="3" style="stroke: #038048; stroke-width: 1.0;"/><text fill="#000000" font-family="sans-serif" font-size="11" lengthAdjust="spacingAndGlyphs" textLength="101" x="26" y="988.8203">return_type: String</text><line style="stroke: #A80036; stroke-width: 1.5;" x1="7" x2="181" y1="995.1406" y2="995.1406"/><!--class RestOperation--><rect fill="#FEFECE" filter="url(#f6bseez825eph)" height="138.6855" id="RestOperation" style="stroke: #A80036; stroke-width: 1.5;" width="204" x="264" y="616"/><ellipse cx="320.75" cy="632" fill="#ADD1B2" rx="11" ry="11" style="stroke: #A80036; stroke-width: 1.0;"/><path d="M323.2231,638.1431 Q322.6421,638.4419 322.0029,638.5913 Q321.3638,638.7407 320.6582,638.7407 Q318.1514,638.7407 316.8315,637.0889 Q315.5117,635.437 315.5117,632.3159 Q315.5117,629.1865 316.8315,627.5347 Q318.1514,625.8828 320.6582,625.8828 Q321.3638,625.8828 322.0112,626.0322 Q322.6587,626.1816 323.2231,626.4805 L323.2231,629.2031 Q322.5923,628.6221 321.9988,628.3523 Q321.4053,628.0825 320.7744,628.0825 Q319.4297,628.0825 318.7449,629.1492 Q318.0601,630.2158 318.0601,632.3159 Q318.0601,634.4077 318.7449,635.4744 Q319.4297,636.541 320.7744,636.541 Q321.4053,636.541 321.9988,636.2712 Q322.5923,636.0015 323.2231,635.4204 Z "/><text fill="#000000" font-family="sans-serif" font-size="12" lengthAdjust="spacingAndGlyphs" textLength="82" x="341.25" y="636.5352">RestOperation</text><line style="stroke: #A80036; stroke-width: 1.5;" x1="265" x2="467" y1="648" y2="648"/><ellipse cx="275" cy="659.9775" fill="none" rx="3" ry="3" style="stroke: #038048; stroke-width: 1.0;"/><text fill="#000000" font-family="sans-serif" font-size="11" lengthAdjust="spacingAndGlyphs" textLength="79" x="284" y="662.6348">method: String</text><ellipse cx="275" cy="672.9326" fill="none" rx="3" ry="3" style="stroke: #038048; stroke-width: 1.0;"/><text fill="#000000" font-family="sans-serif" font-size="11" lengthAdjust="spacingAndGlyphs" textLength="62" x="284" y="675.5898">path: String</text><ellipse cx="275" cy="685.8877" fill="none" rx="3" ry="3" style="stroke: #038048; stroke-width: 1.0;"/><text fill="#000000" font-family="sans-serif" font-size="11" lengthAdjust="spacingAndGlyphs" textLength="67" x="284" y="688.5449">name: String</text><ellipse cx="275" cy="698.8428" fill="none" rx="3" ry="3" style="stroke: #038048; stroke-width: 1.0;"/><text fill="#000000" font-family="sans-serif" font-size="11" lengthAdjust="spacingAndGlyphs" textLength="86" x="284" y="701.5">identifier: String</text><ellipse cx="275" cy="711.7979" fill="none" rx="3" ry="3" style="stroke: #038048; stroke-width: 1.0;"/><text fill="#000000" font-family="sans-serif" font-size="11" lengthAdjust="spacingAndGlyphs" textLength="98" x="284" y="714.4551">namespace: String</text><ellipse cx="275" cy="724.7529" fill="none" rx="3" ry="3" style="stroke: #038048; stroke-width: 1.0;"/><text fill="#000000" font-family="sans-serif" font-size="11" lengthAdjust="spacingAndGlyphs" textLength="99" x="284" y="727.4102">description: String</text><ellipse cx="275" cy="737.708" fill="none" rx="3" ry="3" style="stroke: #038048; stroke-width: 1.0;"/><text fill="#000000" font-family="sans-serif" font-size="11" lengthAdjust="spacingAndGlyphs" textLength="178" x="284" y="740.3652">{get} response_body_type: String</text><line style="stroke: #A80036; stroke-width: 1.5;" x1="265" x2="467" y1="746.6855" y2="746.6855"/><!--class Service--><rect fill="#FEFECE" filter="url(#f6bseez825eph)" height="203.4609" id="Service" style="stroke: #A80036; stroke-width: 1.5;" width="159" x="100.5" y="8"/><ellipse cx="155.75" cy="24" fill="#ADD1B2" rx="11" ry="11" style="stroke: #A80036; stroke-width: 1.0;"/><path d="M158.2231,30.1431 Q157.6421,30.4419 157.0029,30.5913 Q156.3638,30.7407 155.6582,30.7407 Q153.1514,30.7407 151.8315,29.0889 Q150.5117,27.437 150.5117,24.3159 Q150.5117,21.1865 151.8315,19.5347 Q153.1514,17.8828 155.6582,17.8828 Q156.3638,17.8828 157.0112,18.0322 Q157.6587,18.1816 158.2231,18.4805 L158.2231,21.2031 Q157.5923,20.6221 156.9988,20.3523 Q156.4053,20.0825 155.7744,20.0825 Q154.4297,20.0825 153.7449,21.1492 Q153.0601,22.2158 153.0601,24.3159 Q153.0601,26.4077 153.7449,27.4744 Q154.4297,28.541 155.7744,28.541 Q156.4053,28.541 156.9988,28.2712 Q157.5923,28.0015 158.2231,27.4204 Z "/><text fill="#000000" font-family="sans-serif" font-size="12" lengthAdjust="spacingAndGlyphs" textLength="40" x="176.25" y="28.5352">Service</text><line style="stroke: #A80036; stroke-width: 1.5;" x1="101.5" x2="258.5" y1="40" y2="40"/><ellipse cx="111.5" cy="51.9775" fill="none" rx="3" ry="3" style="stroke: #038048; stroke-width: 1.0;"/><text fill="#000000" font-family="sans-serif" font-size="11" lengthAdjust="spacingAndGlyphs" textLength="67" x="120.5" y="54.6348">name: String</text><ellipse cx="111.5" cy="64.9326" fill="none" rx="3" ry="3" style="stroke: #038048; stroke-width: 1.0;"/><text fill="#000000" font-family="sans-serif" font-size="11" lengthAdjust="spacingAndGlyphs" textLength="86" x="120.5" y="67.5898">identifier: String</text><ellipse cx="111.5" cy="77.8877" fill="none" rx="3" ry="3" style="stroke: #038048; stroke-width: 1.0;"/><text fill="#000000" font-family="sans-serif" font-size="11" lengthAdjust="spacingAndGlyphs" textLength="78" x="120.5" y="80.5449">version: String</text><ellipse cx="111.5" cy="90.8428" fill="none" rx="3" ry="3" style="stroke: #038048; stroke-width: 1.0;"/><text fill="#000000" font-family="sans-serif" font-size="11" lengthAdjust="spacingAndGlyphs" textLength="100" x="120.5" y="93.5">api_version: String</text><ellipse cx="111.5" cy="103.7979" fill="none" rx="3" ry="3" style="stroke: #038048; stroke-width: 1.0;"/><text fill="#000000" font-family="sans-serif" font-size="11" lengthAdjust="spacingAndGlyphs" textLength="86" x="120.5" y="106.4551">endpoint: String</text><ellipse cx="111.5" cy="116.7529" fill="none" rx="3" ry="3" style="stroke: #038048; stroke-width: 1.0;"/><text fill="#000000" font-family="sans-serif" font-size="11" lengthAdjust="spacingAndGlyphs" textLength="62" x="120.5" y="119.4102">host: String</text><ellipse cx="111.5" cy="129.708" fill="none" rx="3" ry="3" style="stroke: #038048; stroke-width: 1.0;"/><text fill="#000000" font-family="sans-serif" font-size="11" lengthAdjust="spacingAndGlyphs" textLength="43" x="120.5" y="132.3652">port: Int</text><ellipse cx="111.5" cy="142.6631" fill="none" rx="3" ry="3" style="stroke: #038048; stroke-width: 1.0;"/><text fill="#000000" font-family="sans-serif" font-size="11" lengthAdjust="spacingAndGlyphs" textLength="84" x="120.5" y="145.3203">protocol: String</text><ellipse cx="111.5" cy="155.6182" fill="none" rx="3" ry="3" style="stroke: #038048; stroke-width: 1.0;"/><text fill="#000000" font-family="sans-serif" font-size="11" lengthAdjust="spacingAndGlyphs" textLength="62" x="120.5" y="158.2754">path: String</text><ellipse cx="111.5" cy="168.5732" fill="none" rx="3" ry="3" style="stroke: #038048; stroke-width: 1.0;"/><text fill="#000000" font-family="sans-serif" font-size="11" lengthAdjust="spacingAndGlyphs" textLength="98" x="120.5" y="171.2305">namespace: String</text><ellipse cx="111.5" cy="181.5283" fill="none" rx="3" ry="3" style="stroke: #038048; stroke-width: 1.0;"/><text fill="#000000" font-family="sans-serif" font-size="11" lengthAdjust="spacingAndGlyphs" textLength="99" x="120.5" y="184.1855">description: String</text><ellipse cx="111.5" cy="194.4834" fill="none" rx="3" ry="3" style="stroke: #038048; stroke-width: 1.0;"/><text fill="#000000" font-family="sans-serif" font-size="11" lengthAdjust="spacingAndGlyphs" textLength="133" x="120.5" y="197.1406">datasource_name: String</text><line style="stroke: #A80036; stroke-width: 1.5;" x1="101.5" x2="258.5" y1="203.4609" y2="203.4609"/><!--class ResourceEntry--><rect fill="#FEFECE" filter="url(#f6bseez825eph)" height="60.9551" id="ResourceEntry" style="stroke: #A80036; stroke-width: 1.5;" width="147" x="106.5" y="288"/><ellipse cx="136.35" cy="304" fill="#ADD1B2" rx="11" ry="11" style="stroke: #A80036; stroke-width: 1.0;"/><path d="M138.8231,310.1431 Q138.2421,310.4419 137.6029,310.5913 Q136.9638,310.7407 136.2582,310.7407 Q133.7514,310.7407 132.4315,309.0889 Q131.1117,307.437 131.1117,304.3159 Q131.1117,301.1865 132.4315,299.5347 Q133.7514,297.8828 136.2582,297.8828 Q136.9638,297.8828 137.6112,298.0322 Q138.2587,298.1816 138.8231,298.4805 L138.8231,301.2031 Q138.1923,300.6221 137.5988,300.3523 Q137.0053,300.0825 136.3744,300.0825 Q135.0297,300.0825 134.3449,301.1492 Q133.6601,302.2158 133.6601,304.3159 Q133.6601,306.4077 134.3449,307.4744 Q135.0297,308.541 136.3744,308.541 Q137.0053,308.541 137.5988,308.2712 Q138.1923,308.0015 138.8231,307.4204 Z "/><text fill="#000000" font-family="sans-serif" font-size="12" lengthAdjust="spacingAndGlyphs" textLength="82" x="153.65" y="308.5352">ResourceEntry</text><line style="stroke: #A80036; stroke-width: 1.5;" x1="107.5" x2="252.5" y1="320" y2="320"/><ellipse cx="117.5" cy="331.9775" fill="none" rx="3" ry="3" style="stroke: #038048; stroke-width: 1.0;"/><text fill="#000000" font-family="sans-serif" font-size="11" lengthAdjust="spacingAndGlyphs" textLength="121" x="126.5" y="334.6348">resource_name: String</text><line style="stroke: #A80036; stroke-width: 1.5;" x1="107.5" x2="252.5" y1="340.9551" y2="340.9551"/><!--class RestResource--><rect fill="#FEFECE" filter="url(#f6bseez825eph)" height="112.7754" id="RestResource" style="stroke: #A80036; stroke-width: 1.5;" width="125" x="228.5" y="426"/><ellipse cx="250.25" cy="442" fill="#ADD1B2" rx="11" ry="11" style="stroke: #A80036; stroke-width: 1.0;"/><path d="M252.7231,448.1431 Q252.1421,448.4419 251.5029,448.5913 Q250.8638,448.7407 250.1582,448.7407 Q247.6514,448.7407 246.3315,447.0889 Q245.0117,445.437 245.0117,442.3159 Q245.0117,439.1865 246.3315,437.5347 Q247.6514,435.8828 250.1582,435.8828 Q250.8638,435.8828 251.5112,436.0322 Q252.1587,436.1816 252.7231,436.4805 L252.7231,439.2031 Q252.0923,438.6221 251.4988,438.3523 Q250.9053,438.0825 250.2744,438.0825 Q248.9297,438.0825 248.2449,439.1492 Q247.5601,440.2158 247.5601,442.3159 Q247.5601,444.4077 248.2449,445.4744 Q248.9297,446.541 250.2744,446.541 Q250.9053,446.541 251.4988,446.2712 Q252.0923,446.0015 252.7231,445.4204 Z "/><text fill="#000000" font-family="sans-serif" font-size="12" lengthAdjust="spacingAndGlyphs" textLength="78" x="265.75" y="446.5352">RestResource</text><line style="stroke: #A80036; stroke-width: 1.5;" x1="229.5" x2="352.5" y1="458" y2="458"/><ellipse cx="239.5" cy="469.9775" fill="none" rx="3" ry="3" style="stroke: #038048; stroke-width: 1.0;"/><text fill="#000000" font-family="sans-serif" font-size="11" lengthAdjust="spacingAndGlyphs" textLength="67" x="248.5" y="472.6348">name: String</text><ellipse cx="239.5" cy="482.9326" fill="none" rx="3" ry="3" style="stroke: #038048; stroke-width: 1.0;"/><text fill="#000000" font-family="sans-serif" font-size="11" lengthAdjust="spacingAndGlyphs" textLength="86" x="248.5" y="485.5898">identifier: String</text><ellipse cx="239.5" cy="495.8877" fill="none" rx="3" ry="3" style="stroke: #038048; stroke-width: 1.0;"/><text fill="#000000" font-family="sans-serif" font-size="11" lengthAdjust="spacingAndGlyphs" textLength="98" x="248.5" y="498.5449">namespace: String</text><ellipse cx="239.5" cy="508.8428" fill="none" rx="3" ry="3" style="stroke: #038048; stroke-width: 1.0;"/><text fill="#000000" font-family="sans-serif" font-size="11" lengthAdjust="spacingAndGlyphs" textLength="62" x="248.5" y="511.5">path: String</text><ellipse cx="239.5" cy="521.7979" fill="none" rx="3" ry="3" style="stroke: #038048; stroke-width: 1.0;"/><text fill="#000000" font-family="sans-serif" font-size="11" lengthAdjust="spacingAndGlyphs" textLength="99" x="248.5" y="524.4551">description: String</text><line style="stroke: #A80036; stroke-width: 1.5;" x1="229.5" x2="352.5" y1="530.7754" y2="530.7754"/><!--link RestDataItem to RestDataItem--><path d="M451.0508,904.5495 C464.116,908.0275 473,915.6777 473,927.5 C473,942.9414 457.8443,951.2653 438.0116,952.4716 " fill="none" id="RestDataItem-RestDataItem" style="stroke: #A80036; stroke-width: 1.0;"/><polygon fill="#A80036" points="438.0116,902.5284,443.328,907.4003,449.87,904.3666,444.5535,899.4947,438.0116,902.5284" style="stroke: #A80036; stroke-width: 1.0;"/><text fill="#000000" font-family="sans-serif" font-size="13" lengthAdjust="spacingAndGlyphs" textLength="51" x="479" y="932.5684">children</text><text fill="#000000" font-family="sans-serif" font-size="13" lengthAdjust="spacingAndGlyphs" textLength="6" x="446.216" y="951.9949">*</text><!--link RestDataItem to Entity--><path d="M293.9142,1015.0017 C266.965,1047.7142 238.4536,1082.3229 220.0119,1104.7085 " fill="none" id="RestDataItem-Entity" style="stroke: #A80036; stroke-width: 1.0;"/><text fill="#000000" font-family="sans-serif" font-size="13" lengthAdjust="spacingAndGlyphs" textLength="36" x="259" y="1066.5684">entity</text><text fill="#000000" font-family="sans-serif" font-size="13" lengthAdjust="spacingAndGlyphs" textLength="24" x="198.0649" y="1094.1701">0..1</text><!--link GraphqlQuery to Entity--><path d="M113.4505,1003.8525 C120.8841,1026.0884 130.6314,1049.8116 143,1070 C150.8124,1082.7517 161.8052,1094.9685 172.0552,1104.9439 " fill="none" id="GraphqlQuery-Entity" style="stroke: #A80036; stroke-width: 1.0;"/><text fill="#000000" font-family="sans-serif" font-size="13" lengthAdjust="spacingAndGlyphs" textLength="83" x="144" y="1066.5684">record_entity</text><text fill="#000000" font-family="sans-serif" font-size="13" lengthAdjust="spacingAndGlyphs" textLength="24" x="136.3214" y="1112.6945">0..1</text><!--link RestOperation to RestDataItem--><path d="M250.6811,709.8593 C177.5989,727.9004 92.8589,754.5585 71,785 C47.1429,818.2243 103.8154,794.1082 200,832 C232.1718,844.674 265.6005,862.8116 293.9553,879.882 " fill="none" id="RestOperation-RestDataItem" style="stroke: #A80036; stroke-width: 1.0;"/><polygon fill="#A80036" points="263.7028,706.7039,256.9295,704.2295,252.0403,709.5301,258.8136,712.0045,263.7028,706.7039" style="stroke: #A80036; stroke-width: 1.0;"/><text fill="#000000" font-family="sans-serif" font-size="13" lengthAdjust="spacingAndGlyphs" textLength="105" x="72" y="798.5684">path_parameters</text><text fill="#000000" font-family="sans-serif" font-size="13" lengthAdjust="spacingAndGlyphs" textLength="6" x="280.2163" y="871.8078">*</text><!--link RestOperation to RestDataItem--><path d="M253.3211,742.851 C239.1401,754.833 226.6092,768.838 218,785 C193.5167,830.962 245.0976,870.8476 293.9453,896.6383 " fill="none" id="RestOperation-RestDataItem" style="stroke: #A80036; stroke-width: 1.0;"/><polygon fill="#A80036" points="263.9062,734.4818,256.7188,735.0654,254.4931,741.9244,261.6805,741.3408,263.9062,734.4818" style="stroke: #A80036; stroke-width: 1.0;"/><text fill="#000000" font-family="sans-serif" font-size="13" lengthAdjust="spacingAndGlyphs" textLength="103" x="219" y="798.5684">request_headers</text><text fill="#000000" font-family="sans-serif" font-size="13" lengthAdjust="spacingAndGlyphs" textLength="6" x="280.2053" y="890.2921">*</text><!--link RestOperation to RestDataItem--><path d="M363.3144,768.2929 C363.1893,773.9465 363.082,779.5567 363,785 C362.7725,800.0928 362.8238,816.0838 363.0339,831.688 " fill="none" id="RestOperation-RestDataItem" style="stroke: #A80036; stroke-width: 1.0;"/><polygon fill="#A80036" points="363.6349,755.0804,359.4905,760.9816,363.3437,767.0769,367.4881,761.1757,363.6349,755.0804" style="stroke: #A80036; stroke-width: 1.0;"/><text fill="#000000" font-family="sans-serif" font-size="13" lengthAdjust="spacingAndGlyphs" textLength="112" x="364" y="798.5684">query_parameters</text><text fill="#000000" font-family="sans-serif" font-size="13" lengthAdjust="spacingAndGlyphs" textLength="6" x="356.5771" y="821.3773">*</text><!--link RestOperation to RestDataItem--><path d="M476.1347,758.273 C484.2086,771.5743 487.1159,786.273 481,802 C471.7351,825.8247 455.6017,847.8774 438.2991,866.6356 " fill="none" id="RestOperation-RestDataItem" style="stroke: #A80036; stroke-width: 1.0;"/><polygon fill="#A80036" points="468.2221,747.4366,468.5299,754.6411,475.2987,757.128,474.9908,749.9234,468.2221,747.4366" style="stroke: #A80036; stroke-width: 1.0;"/><text fill="#000000" font-family="sans-serif" font-size="13" lengthAdjust="spacingAndGlyphs" textLength="85" x="485" y="798.5684">request_body</text><text fill="#000000" font-family="sans-serif" font-size="13" lengthAdjust="spacingAndGlyphs" textLength="6" x="446.0643" y="857.1954">*</text><!--link RestOperation to RestDataItem--><path d="M480.5238,712.1876 C518.484,727.0688 556.7006,749.9707 579,785 C619.1993,848.1476 514.5538,889.843 438.0913,911.0078 " fill="none" id="RestOperation-RestDataItem" style="stroke: #A80036; stroke-width: 1.0;"/><polygon fill="#A80036" points="468.2286,707.6327,472.4653,713.4679,479.4812,711.8014,475.2445,705.9662,468.2286,707.6327" style="stroke: #A80036; stroke-width: 1.0;"/><text fill="#000000" font-family="sans-serif" font-size="13" lengthAdjust="spacingAndGlyphs" textLength="113" x="587" y="798.5684">response_headers</text><text fill="#000000" font-family="sans-serif" font-size="13" lengthAdjust="spacingAndGlyphs" textLength="6" x="445.8351" y="906.1435">*</text><!--link RestOperation to RestDataItem--><path d="M481.2662,703.7848 C569.7254,720.4464 681.2713,748.0845 709,785 C782.3886,882.7031 559.1819,913.8423 438.2669,923.4272 " fill="none" id="RestOperation-RestDataItem" style="stroke: #A80036; stroke-width: 1.0;"/><polygon fill="#A80036" points="468.395,701.4063,473.5683,706.43,480.1952,703.5869,475.022,698.5632,468.395,701.4063" style="stroke: #A80036; stroke-width: 1.0;"/><text fill="#000000" font-family="sans-serif" font-size="13" lengthAdjust="spacingAndGlyphs" textLength="95" x="719" y="798.5684">response_body</text><text fill="#000000" font-family="sans-serif" font-size="13" lengthAdjust="spacingAndGlyphs" textLength="6" x="446.0288" y="936.3905">*</text><!--link Service to ResourceEntry--><path d="M180,224.2753 C180,247.656 180,270.3439 180,287.5963 " fill="none" id="Service-ResourceEntry" style="stroke: #A80036; stroke-width: 1.0;"/><polygon fill="#A80036" points="180,211.2449,176,217.2449,180,223.2449,184,217.2449,180,211.2449" style="stroke: #A80036; stroke-width: 1.0;"/><text fill="#000000" font-family="sans-serif" font-size="13" lengthAdjust="spacingAndGlyphs" textLength="104" x="181" y="254.5684">resource_entries</text><text fill="#000000" font-family="sans-serif" font-size="13" lengthAdjust="spacingAndGlyphs" textLength="6" x="173.3813" y="277.2806">*</text><!--link Service to Datasource--><path d="M259.6233,198.689 C270.9046,212.537 282.0405,226.924 292,241 C304.1318,258.1461 315.9824,278.7605 324.4747,294.4171 " fill="none" id="Service-Datasource" style="stroke: #A80036; stroke-width: 1.0;"/><text fill="#000000" font-family="sans-serif" font-size="13" lengthAdjust="spacingAndGlyphs" textLength="69" x="303" y="254.5684">datasource</text><text fill="#000000" font-family="sans-serif" font-size="13" lengthAdjust="spacingAndGlyphs" textLength="8" x="312.2401" y="283.9321">1</text><!--link Service to GraphqlQuery--><path d="M90.6142,176.6429 C52.2184,213.5207 16,263.0129 16,318.5 C16,318.5 16,318.5 16,685.5 C16,742.9954 36.1916,804.6303 56.0282,851.309 " fill="none" id="Service-GraphqlQuery" style="stroke: #A80036; stroke-width: 1.0;"/><polygon fill="#A80036" points="100.402,167.543,93.2841,168.6989,91.6134,175.7138,98.7313,174.5579,100.402,167.543" style="stroke: #A80036; stroke-width: 1.0;"/><text fill="#000000" font-family="sans-serif" font-size="13" lengthAdjust="spacingAndGlyphs" textLength="101" x="17" y="487.5684">graphql_queries</text><text fill="#000000" font-family="sans-serif" font-size="13" lengthAdjust="spacingAndGlyphs" textLength="6" x="45.995" y="840.672">*</text><!--link ResourceEntry to RestResource--><path d="M200.8783,349.3471 C215.448,370.8737 235.3179,400.231 252.6933,425.9026 " fill="none" id="ResourceEntry-RestResource" style="stroke: #A80036; stroke-width: 1.0;"/><text fill="#000000" font-family="sans-serif" font-size="13" lengthAdjust="spacingAndGlyphs" textLength="54" x="233" y="392.5684">resource</text><text fill="#000000" font-family="sans-serif" font-size="13" lengthAdjust="spacingAndGlyphs" textLength="8" x="239.2728" y="415.2928">1</text><!--link RestResource to RestOperation--><path d="M316.4425,551.3644 C324.1297,572.171 332.5734,595.0253 340.2786,615.8808 " fill="none" id="RestResource-RestOperation" style="stroke: #A80036; stroke-width: 1.0;"/><polygon fill="#A80036" points="311.8917,539.0468,310.219,546.0612,316.0505,550.3031,317.7232,543.2887,311.8917,539.0468" style="stroke: #A80036; stroke-width: 1.0;"/><text fill="#000000" font-family="sans-serif" font-size="13" lengthAdjust="spacingAndGlyphs" textLength="67" x="329" y="582.5684">operations</text><text fill="#000000" font-family="sans-serif" font-size="13" lengthAdjust="spacingAndGlyphs" textLength="22" x="314.2622" y="605.0484">1..*</text><!--
@startuml


class RestDataItem {
  + name: String
  + identifier: String
  + type: String?
  + {get} data_type: String
  + entity_name: String?
  + description: String
  + root: Boolean
  + multiple: Boolean
  + required: Boolean
  + default_value: String?
  + example_value: String
}





RestDataItem *- - "*" RestDataItem : children





package laplacian.metamodel {
  class Entity {
  }
}


RestDataItem - - "0..1" Entity : entity




class GraphqlQuery {
  + name: String
  + identifier: String
  + description: String
  + query: String
  + multiple: Boolean
  + record_entity_name: String?
  + record_type: String
  + return_type: String
}




package laplacian.metamodel {
  class Entity {
  }
}


GraphqlQuery - - "0..1" Entity : record_entity




class RestOperation {
  + method: String
  + path: String
  + name: String
  + identifier: String
  + namespace: String
  + description: String
  + {get} response_body_type: String
}





RestOperation *- - "*" RestDataItem : path_parameters






RestOperation *- - "*" RestDataItem : request_headers






RestOperation *- - "*" RestDataItem : query_parameters






RestOperation *- - "*" RestDataItem : request_body






RestOperation *- - "*" RestDataItem : response_headers






RestOperation *- - "*" RestDataItem : response_body




class Service {
  + name: String
  + identifier: String
  + version: String
  + api_version: String
  + endpoint: String
  + host: String
  + port: Int
  + protocol: String
  + path: String
  + namespace: String
  + description: String
  + datasource_name: String
}





Service *- - "*" ResourceEntry : resource_entries





package laplacian_arch.datasource {
  class Datasource {
  }
}


Service - - "1" Datasource : datasource






Service *- - "*" GraphqlQuery : graphql_queries




class ResourceEntry {
  + resource_name: String
}





ResourceEntry - - "1" RestResource : resource




class RestResource {
  + name: String
  + identifier: String
  + namespace: String
  + path: String
  + description: String
}





RestResource *- - "1..*" RestOperation : operations



@enduml

PlantUML version 1.2019.03(Sun Mar 10 20:04:44 JST 2019)
(GPL source distribution)
Java Runtime: OpenJDK Runtime Environment
JVM: OpenJDK 64-Bit Server VM
Java Version: 1.8.0_172-b01
Operating System: Mac OS X
OS Version: 10.14.4
Default Encoding: UTF-8
Language: en
Country: JP
--></g></svg>